<svg width="20" height="20" viewBox="0 0 24 24" fill="none" xmlns="http://www.w3.org/2000/svg">
<path d="M19.05 4.91005C18.1331 3.98416 17.041 3.25002 15.8375 2.75042C14.634 2.25081 13.3431 1.99574 12.04 2.00005C6.58 2.00005 2.13 6.45005 2.13 11.9101C2.13 13.6601 2.59 15.3601 3.45 16.8601L2.05 22.0001L7.3 20.6201C8.75 21.4101 10.38 21.8301 12.04 21.8301C17.5 21.8301 21.95 17.3801 21.95 11.9201C21.95 9.27005 20.92 6.78005 19.05 4.91005ZM12.04 20.1501C10.56 20.1501 9.11 19.7501 7.84 19.0001L7.54 18.8201L4.42 19.6401L5.25 16.6001L5.05 16.2901C4.22755 14.9771 3.79092 13.4593 3.79 11.9101C3.79 7.37005 7.49 3.67005 12.03 3.67005C14.23 3.67005 16.3 4.53005 17.85 6.09005C18.6176 6.85392 19.2259 7.7626 19.6396 8.76338C20.0533 9.76417 20.2642 10.8371 20.26 11.9201C20.28 16.4601 16.58 20.1501 12.04 20.1501ZM16.56 13.9901C16.31 13.8701 15.09 13.2701 14.87 13.1801C14.64 13.1001 14.48 13.0601 14.31 13.3001C14.14 13.5501 13.67 14.1101 13.53 14.2701C13.39 14.4401 13.24 14.4601 12.99 14.3301C12.74 14.2101 11.94 13.9401 11 13.1001C10.26 12.4401 9.77 11.6301 9.62 11.3801C9.48 11.1301 9.6 11.0001 9.73 10.8701C9.84 10.7601 9.98 10.5801 10.1 10.4401C10.22 10.3001 10.27 10.1901 10.35 10.0301C10.43 9.86005 10.39 9.72005 10.33 9.60005C10.27 9.48005 9.77 8.26005 9.57 7.76005C9.37 7.28005 9.16 7.34005 9.01 7.33005H8.53C8.36 7.33005 8.1 7.39005 7.87 7.64005C7.65 7.89005 7.01 8.49005 7.01 9.71005C7.01 10.9301 7.9 12.1101 8.02 12.2701C8.14 12.4401 9.77 14.9401 12.25 16.0101C12.84 16.2701 13.3 16.4201 13.66 16.5301C14.25 16.7201 14.79 16.6901 15.22 16.6301C15.7 16.5601 16.69 16.0301 16.89 15.4501C17.1 14.8701 17.1 14.3801 17.03 14.2701C16.96 14.1601 16.81 14.1101 16.56 13.9901Z" fill="white"/>
</svg>
