<svg width="32" height="32" viewBox="0 0 32 32" fill="none" xmlns="http://www.w3.org/2000/svg">
<path d="M17.6264 2.29333L14.7637 5.15467C14.6089 5.30944 14.4861 5.49319 14.4023 5.69543C14.3185 5.89767 14.2754 6.11443 14.2754 6.33333C14.2754 6.55224 14.3185 6.769 14.4023 6.97124C14.4861 7.17348 14.6089 7.35723 14.7637 7.512L17.6264 10.3733L19.0397 8.96L17.413 7.33333H17.6664C21.533 7.33333 24.6664 10.4667 24.6664 14.3333V14.5867L23.0397 12.96L21.625 14.3733L24.4917 17.2413C24.6467 17.3964 24.8308 17.5193 25.0333 17.6031C25.2359 17.6869 25.453 17.7299 25.6723 17.7296C25.8915 17.7294 26.1085 17.6859 26.3109 17.6017C26.5133 17.5174 26.6971 17.3941 26.8517 17.2387L29.7077 14.372L28.2904 12.9613L26.6664 14.5907V14.3333C26.6664 11.9464 25.7182 9.6572 24.0303 7.96937C22.3425 6.28155 20.0533 5.33333 17.6664 5.33333H17.413L19.0397 3.70667L17.6264 2.29333Z" fill="#EF6A4C"/>
<path fill-rule="evenodd" clip-rule="evenodd" d="M9.22647 9.46931C8.98056 9.05277 8.65465 8.68901 8.26754 8.39898C7.88043 8.10895 7.43975 7.89838 6.9709 7.7794C6.50205 7.66042 6.0143 7.63538 5.53573 7.70574C5.05716 7.77609 4.59724 7.94043 4.18247 8.18931L2.2998 9.31997L8.61447 20.004C8.02612 20.3162 7.53391 20.7827 7.19071 21.3536C6.84751 21.9244 6.66628 22.5779 6.66647 23.244V29.3333H23.9998V24.0773L28.6265 25.928L29.3705 24.072L23.9998 21.924V21.504C23.9999 20.9692 23.8831 20.4409 23.6575 19.9561C23.4319 19.4713 23.1029 19.0417 22.6937 18.6974C22.2845 18.3531 21.805 18.1025 21.2887 17.9632C20.7725 17.8238 20.232 17.7991 19.7051 17.8906L14.7158 18.7586L9.22647 9.46931ZM12.6091 19.1253L7.5038 10.4853C7.39187 10.296 7.2436 10.1308 7.06752 9.99909C6.89145 9.86738 6.69105 9.77182 6.47788 9.71791C6.2647 9.664 6.04297 9.6528 5.82545 9.68496C5.60793 9.71712 5.39892 9.79201 5.21047 9.90531L5.0318 10.012L10.6225 19.4706L12.6091 19.1253ZM20.0478 19.8613C20.2873 19.8197 20.533 19.831 20.7676 19.8943C21.0023 19.9577 21.2203 20.0716 21.4063 20.2282C21.5923 20.3847 21.7417 20.58 21.8443 20.8004C21.9468 21.0207 21.9999 21.2609 21.9998 21.504V27.3333H8.66647V23.2426C8.66664 22.8502 8.80528 22.4704 9.05796 22.1702C9.31065 21.8699 9.66117 21.6685 10.0478 21.6013L20.0478 19.8613Z" fill="#EF6A4C"/>
</svg>
