<svg width="32" height="32" viewBox="0 0 32 32" fill="none" xmlns="http://www.w3.org/2000/svg">
<path fill-rule="evenodd" clip-rule="evenodd" d="M16 27.6667C12.9058 27.6667 9.93835 26.4375 7.75042 24.2496C5.5625 22.0617 4.33333 19.0942 4.33333 16C4.33333 12.9058 5.5625 9.93835 7.75042 7.75042C9.93835 5.5625 12.9058 4.33333 16 4.33333V1C7.716 1 1 7.716 1 16C1 24.284 7.716 31 16 31C24.284 31 31 24.284 31 16H27.6667C27.6667 19.0942 26.4375 22.0617 24.2496 24.2496C22.0617 26.4375 19.0942 27.6667 16 27.6667ZM26.5013 10.9093C26.9213 11.7733 27.2373 12.696 27.4333 13.664L30.7 13.0013C30.4506 11.7725 30.0474 10.58 29.5 9.452L26.5013 10.9093ZM25.3333 8.99867C24.6688 8.11524 23.8829 7.33014 22.9987 6.66667L25.0013 4C26.136 4.85333 27.1467 5.86267 27.9987 6.99867L25.3347 9L25.3333 8.99867ZM18.3333 4.56667C19.2875 4.76087 20.2135 5.07445 21.0893 5.5L22.5453 2.50133C21.4177 1.95402 20.2257 1.55085 18.9973 1.30133L18.3333 4.568V4.56667ZM14.6667 9.33333V16.552L15.0573 16.9427L20.3907 22.276L22.276 20.3907L17.3333 15.448V9.33333H14.6667Z" fill="#EF6A4C"/>
</svg>
