<svg width="24" height="24" viewBox="0 0 24 24" fill="none" xmlns="http://www.w3.org/2000/svg">
<path d="M16 2.5H8C4.96243 2.5 2.5 4.96243 2.5 8V16C2.5 19.0376 4.96243 21.5 8 21.5H16C19.0376 21.5 21.5 19.0376 21.5 16V8C21.5 4.96243 19.0376 2.5 16 2.5Z" stroke="#BCD0C9" stroke-width="1.41667"/>
<path d="M12 16.1998C14.3196 16.1998 16.2 14.3194 16.2 11.9998C16.2 9.68021 14.3196 7.7998 12 7.7998C9.6804 7.7998 7.8 9.68021 7.8 11.9998C7.8 14.3194 9.6804 16.1998 12 16.1998Z" stroke="#BCD0C9" stroke-width="1.41667"/>
<path d="M17.6 7.6002C18.2627 7.6002 18.8 7.06294 18.8 6.4002C18.8 5.73745 18.2627 5.2002 17.6 5.2002C16.9373 5.2002 16.4 5.73745 16.4 6.4002C16.4 7.06294 16.9373 7.6002 17.6 7.6002Z" fill="#BCD0C9"/>
</svg>
