<svg width="32" height="32" viewBox="0 0 32 32" fill="none" xmlns="http://www.w3.org/2000/svg">
<path fill-rule="evenodd" clip-rule="evenodd" d="M9.99132 8.81958C9.8844 9.29188 9.6854 9.73846 9.40569 10.1338C9.12599 10.5291 8.77108 10.8653 8.36127 11.1233C7.95147 11.3813 7.49481 11.556 7.01743 11.6373C6.54005 11.7186 6.05132 11.7049 5.57922 11.5972C5.10711 11.4894 4.6609 11.2896 4.2661 11.0091C3.87131 10.7287 3.53569 10.3732 3.27846 9.9629C3.02122 9.55262 2.84741 9.09564 2.76698 8.61811C2.68655 8.14058 2.70107 7.65188 2.80972 7.17998C3.03133 6.23204 3.61921 5.41038 4.44485 4.89462C5.27049 4.37886 6.26674 4.21094 7.21583 4.42757C8.16492 4.6442 8.98965 5.22776 9.50974 6.05068C10.0298 6.87361 10.203 7.86937 9.99132 8.81958ZM4.36972 8.46318C4.49268 9.00183 4.82458 9.46958 5.2924 9.76353C5.52405 9.90907 5.78209 10.0076 6.0518 10.0534C6.32151 10.0992 6.59761 10.0915 6.86432 10.0306C7.13104 9.9697 7.38315 9.85688 7.60626 9.69857C7.82938 9.54025 8.01912 9.33954 8.16467 9.1079C8.31022 8.87625 8.40871 8.61821 8.45453 8.3485C8.50035 8.07879 8.4926 7.80269 8.43172 7.53598C8.30877 6.99732 7.97687 6.52957 7.50904 6.23563C7.04121 5.94168 6.47578 5.84562 5.93712 5.96858C5.39847 6.09153 4.93072 6.42343 4.63677 6.89126C4.34283 7.35909 4.24677 7.92452 4.36972 8.46318Z" fill="#EF6A4C"/>
<path d="M15.5998 4.45398C15.812 4.45398 16.0155 4.53826 16.1655 4.68829C16.3155 4.83832 16.3998 5.04181 16.3998 5.25398V27.254C16.3998 27.4662 16.3155 27.6696 16.1655 27.8197C16.0155 27.9697 15.812 28.054 15.5998 28.054C15.3876 28.054 15.1841 27.9697 15.0341 27.8197C14.8841 27.6696 14.7998 27.4662 14.7998 27.254V5.25398C14.7998 5.04181 14.8841 4.83832 15.0341 4.68829C15.1841 4.53826 15.3876 4.45398 15.5998 4.45398Z" fill="#EF6A4C"/>
<path fill-rule="evenodd" clip-rule="evenodd" d="M1.2002 15.4664C1.2003 14.547 1.5656 13.6653 2.21574 13.0153C2.86588 12.3652 3.74761 12 4.667 12H8.1334C9.05278 12 9.93451 12.3652 10.5847 13.0153C11.2348 13.6653 11.6001 14.547 11.6002 15.4664V19.4664C11.6002 19.7466 11.5451 20.024 11.4379 20.2829C11.3308 20.5417 11.1736 20.7769 10.9755 20.9751C10.7774 21.1732 10.5423 21.3304 10.2834 21.4376C10.0246 21.5448 9.74716 21.6 9.467 21.6H9.2002V26.4C9.2002 26.8243 9.03162 27.2313 8.73157 27.5314C8.43151 27.8314 8.02454 28 7.6002 28H5.2002C4.77585 28 4.36888 27.8314 4.06882 27.5314C3.76877 27.2313 3.6002 26.8243 3.6002 26.4V21.6H3.3334C3.05323 21.6 2.7758 21.5448 2.51696 21.4376C2.25812 21.3304 2.02294 21.1732 1.82485 20.9751C1.62676 20.7769 1.46964 20.5417 1.36246 20.2829C1.25528 20.024 1.20014 19.7466 1.2002 19.4664V15.4664ZM4.667 13.6C4.17196 13.6 3.69719 13.7966 3.34711 14.1466C2.99703 14.4966 2.8003 14.9714 2.8002 15.4664V19.4664C2.8002 19.7612 3.039 20 3.3334 20H4.4002C4.61237 20 4.81585 20.0843 4.96588 20.2343C5.11591 20.3843 5.2002 20.5878 5.2002 20.8V26.4H7.6002V20.8C7.6002 20.5878 7.68448 20.3843 7.83451 20.2343C7.98454 20.0843 8.18802 20 8.4002 20H9.467C9.7614 20 10.0002 19.7612 10.0002 19.4664V15.4664C10.0001 14.9714 9.80336 14.4966 9.45328 14.1466C9.1032 13.7966 8.62843 13.6 8.1334 13.6H4.667ZM22.5538 13.1852C22.875 12.8133 23.2726 12.515 23.7195 12.3105C24.1663 12.106 24.652 12.0002 25.1434 12.0002C25.6348 12.0002 26.1205 12.106 26.5673 12.3105C27.0142 12.515 27.4118 12.8133 27.733 13.1852L27.781 13.2408C28.0931 13.603 28.33 14.0237 28.4778 14.4784L30.6402 21.1548C30.6864 21.2976 30.6982 21.4494 30.6746 21.5977C30.651 21.7459 30.5927 21.8865 30.5044 22.0079C30.4161 22.1294 30.3003 22.2282 30.1665 22.2963C30.0327 22.3645 29.8847 22.4 29.7346 22.4H28.0002V26.4C28.0002 26.8243 27.8316 27.2313 27.5316 27.5314C27.2315 27.8314 26.8245 28 26.4002 28H24.0002C23.5758 28 23.1689 27.8314 22.8688 27.5314C22.5688 27.2313 22.4002 26.8243 22.4002 26.4V22.4H20.5522C20.4021 22.4 20.2541 22.3645 20.1203 22.2963C19.9865 22.2282 19.8707 22.1294 19.7824 22.0079C19.6941 21.8865 19.6358 21.7459 19.6122 21.5977C19.5886 21.4494 19.6004 21.2976 19.6466 21.1548L21.809 14.4784C21.9568 14.0237 22.1936 13.603 22.5058 13.2408L22.5538 13.1852ZM25.1434 13.6C24.8817 13.6002 24.6232 13.6566 24.3853 13.7655C24.1474 13.8744 23.9357 14.0333 23.7646 14.2312L23.7166 14.2864C23.5438 14.4864 23.4126 14.7196 23.331 14.9712L21.4434 20.8H23.2002C23.4124 20.8 23.6159 20.8843 23.7659 21.0343C23.9159 21.1843 24.0002 21.3878 24.0002 21.6V26.4H26.4002V21.6C26.4002 21.3878 26.4845 21.1843 26.6345 21.0343C26.7845 20.8843 26.988 20.8 27.2002 20.8H28.8434L26.9554 14.9712C26.8735 14.7197 26.7426 14.487 26.5702 14.2864L26.5222 14.2308C26.3511 14.0329 26.1393 13.8742 25.9014 13.7653C25.6635 13.6565 25.405 13.6001 25.1434 13.6Z" fill="#EF6A4C"/>
<path fill-rule="evenodd" clip-rule="evenodd" d="M26.798 11.3184C26.3618 11.532 25.8876 11.6572 25.4028 11.6868C24.918 11.7164 24.4321 11.6499 23.9732 11.4909C23.5142 11.332 23.0912 11.0839 22.7285 10.7608C22.3658 10.4377 22.0706 10.0461 21.8598 9.60851C21.6491 9.17089 21.527 8.69592 21.5006 8.21093C21.4741 7.72594 21.5439 7.24051 21.7058 6.78258C21.8677 6.32466 22.1186 5.90328 22.4441 5.54271C22.7695 5.18214 23.163 4.8895 23.602 4.68163C24.4811 4.26535 25.4892 4.21371 26.4062 4.53797C27.3232 4.86224 28.0748 5.53608 28.4968 6.41244C28.9188 7.28879 28.977 8.2965 28.6588 9.21564C28.3405 10.1348 27.6716 10.8907 26.798 11.3184ZM24.296 9.87683C24.5425 9.99554 24.81 10.0645 25.0831 10.0799C25.3563 10.0952 25.6298 10.0566 25.888 9.96629C26.1463 9.87594 26.3842 9.73561 26.5882 9.55331C26.7922 9.37101 26.9583 9.15032 27.077 8.90383C27.1957 8.65734 27.2647 8.38987 27.2801 8.11672C27.2954 7.84356 27.2568 7.57005 27.1665 7.31181C27.0761 7.05357 26.9358 6.81566 26.7535 6.61165C26.5712 6.40764 26.3505 6.24154 26.104 6.12283C25.6062 5.88307 25.0335 5.85089 24.512 6.03336C23.9905 6.21584 23.5628 6.59801 23.323 7.09583C23.0833 7.59364 23.0511 8.1663 23.2335 8.68784C23.416 9.20938 23.7982 9.63707 24.296 9.87683Z" fill="#EF6A4C"/>
</svg>
