<svg width="16" height="16" viewBox="0 0 16 16" fill="none" xmlns="http://www.w3.org/2000/svg">
<path d="M8 12.6667H11C11.4733 12.6667 11.9147 12.5253 12.2827 12.2827M13.3127 10.6433C13.3569 10.3137 13.3301 9.97839 13.2341 9.65994C13.1381 9.34149 12.9751 9.04724 12.7561 8.79692C12.5371 8.5466 12.2671 8.34599 11.9642 8.20855C11.6614 8.0711 11.3326 8 11 8H10.6673M8.00067 8H5.66667C5.20545 7.9999 4.75461 7.86312 4.37109 7.60693C3.98756 7.35074 3.68857 6.98664 3.51187 6.56062C3.33517 6.13459 3.28868 5.66575 3.37829 5.21333C3.4679 4.7609 3.68958 4.34517 4.01533 4.01867M5.66667 3.33333H8M2 2L14 14M2.66667 12.6667C2.66667 13.0203 2.80714 13.3594 3.05719 13.6095C3.30724 13.8595 3.64638 14 4 14C4.35362 14 4.69276 13.8595 4.94281 13.6095C5.19286 13.3594 5.33333 13.0203 5.33333 12.6667C5.33333 12.313 5.19286 11.9739 4.94281 11.7239C4.69276 11.4738 4.35362 11.3333 4 11.3333C3.64638 11.3333 3.30724 11.4738 3.05719 11.7239C2.80714 11.9739 2.66667 12.313 2.66667 12.6667ZM10.6667 3.33333C10.6667 3.68696 10.8071 4.02609 11.0572 4.27614C11.3072 4.52619 11.6464 4.66667 12 4.66667C12.3536 4.66667 12.6928 4.52619 12.9428 4.27614C13.1929 4.02609 13.3333 3.68696 13.3333 3.33333C13.3333 2.97971 13.1929 2.64057 12.9428 2.39052C12.6928 2.14048 12.3536 2 12 2C11.6464 2 11.3072 2.14048 11.0572 2.39052C10.8071 2.64057 10.6667 2.97971 10.6667 3.33333Z" stroke="#EF6A4C" stroke-opacity="0.75" stroke-width="2" stroke-linecap="round" stroke-linejoin="round"/>
</svg>
