<svg width="24" height="24" viewBox="0 0 24 24" fill="none" xmlns="http://www.w3.org/2000/svg">
<path d="M12 11H12.01V11.01H12V11Z" stroke="#EF6A4C" stroke-width="3.75" stroke-linejoin="round"/>
<path d="M11.9997 22L17.4997 16.5C18.5874 15.4122 19.3282 14.0263 19.6283 12.5175C19.9283 11.0088 19.7743 9.44489 19.1856 8.02367C18.5969 6.60244 17.6 5.38771 16.3209 4.53306C15.0418 3.67842 13.538 3.22226 11.9997 3.22226C10.4614 3.22226 8.95757 3.67842 7.67849 4.53306C6.39942 5.38771 5.40249 6.60244 4.81378 8.02367C4.22507 9.44489 4.07102 11.0088 4.37111 12.5175C4.6712 14.0263 5.41195 15.4122 6.49968 16.5L11.9997 22Z" stroke="#EF6A4C" stroke-width="2.5" stroke-linejoin="round"/>
</svg>
