<svg width="130" height="60" viewBox="0 0 130 60" fill="none" xmlns="http://www.w3.org/2000/svg">
<g id="Amazing Galapagos Travel &#226;&#128;&#148; Homepage">
<g id="Container:margin">
<g id="Container">
<g id="Link">
<g id="logo" clip-path="url(#clip0_0_1)">
<path id="Vector" d="M0 0H130V60H0V0ZM17.2299 12.6993C18.4597 14.8696 20.7521 13.2189 22.1427 15.0651C22.6331 15.7163 22.9329 16.3672 23.0925 17.2109C23.5556 19.9368 24.4779 22.4401 25.4424 24.9847C25.8695 26.1115 26.2284 27.1781 26.2663 28.4089C25.5035 29.6008 25.1998 29.8558 25.3525 31.376C23.9982 32.419 23.6579 33.0795 24.7268 34.7367L24.7519 34.7751C23.7585 34.8583 23.6186 35.0812 22.8085 35.2636C21.333 35.5959 20.4758 35.5942 19.4271 37.0248C18.0426 38.9479 17.1602 41.236 16.129 43.3948C15.8023 44.0788 15.2228 44.7141 14.9109 45.4127C14.5304 46.2652 14.956 47.3579 15.2016 48.1948C15.5255 48.3566 16.1267 48.5349 16.252 48.6027C17.6233 49.3447 18.4502 49.6846 19.9679 49.0519C20.5122 48.8249 20.9421 48.6136 21.3569 48.1324C21.3615 47.2415 21.2243 45.1426 21.8599 44.7108C23.4291 43.6445 23.8412 41.5407 25.1904 40.3736C25.7563 40.0325 27.2544 38.9778 27.8469 39.0518C29.717 39.2854 31.5306 39.904 33.3746 40.3204C35.3877 40.7748 37.6792 39.8089 39.2841 41.3939C39.267 41.8159 39.1677 42.6897 39.3972 42.9835C40.0282 43.4628 41.9758 43.7101 42.8286 43.6381C43.7054 44.7825 45.0203 45.1473 45.5107 46.2039C44.8309 47.2053 44.8786 47.5182 45.5414 48.4652C45.6668 48.6443 45.5384 48.9979 45.8538 49.3305C46.3209 49.5174 46.8504 49.3626 47.2368 49.3924C48.6245 49.4996 49.2955 49.6997 50.3907 48.6016C50.6111 48.3806 51.4783 48.3563 52.1424 47.6902C52.4042 46.6631 52.4233 46.069 52.4275 44.9959C52.4272 44.644 52.4827 44.3545 52.5373 44.0099C52.9366 44.1684 54.072 44.4975 54.5009 44.6227C54.844 44.7229 55.6123 44.3687 55.9911 44.403C56.3751 44.4377 56.6383 44.5597 57.0208 44.6479C57.4043 44.5565 57.8173 44.5035 58.1173 44.2355C58.3218 43.8517 58.1343 40.0625 58.0891 39.3174C58.0701 39.002 57.3055 38.1821 57.127 37.8678C57.0128 37.6666 56.8757 37.1992 56.812 36.9514C57.992 36.2495 58.0778 36.544 59.1334 36.2367C59.1242 34.4905 59.1342 32.7271 57.8905 31.4378C57.7666 31.3094 57.2213 30.7592 57.1669 30.6321C56.1985 28.3692 55.4555 25.5765 53.4368 24.1584C52.5474 23.5336 52.1052 22.5679 51.2716 21.8833C49.8938 20.5778 48.177 20.2085 46.5895 19.357C46.0008 19.0803 45.458 18.7917 44.8672 18.512C44.0452 18.123 43.003 17.0071 42.1452 16.8027C40.7302 16.4654 38.7482 16.8167 37.2875 16.8783C36.5274 16.9104 35.9416 17.2268 35.6086 17.9652C33.4373 18.6544 32.1787 19.1585 30.6531 21.217C29.7152 21.183 29.2842 21.8291 28.3186 22.2803C27.9569 20.5759 27.5879 18.8619 27.237 17.1616C27.0996 16.496 26.7556 15.4123 26.6828 14.8225C26.3432 12.0719 26.1749 9.43883 23.8321 7.79705C22.8092 7.08021 21.8566 7.12398 20.6716 7.12068C20.3412 7.12096 19.546 7.06546 19.2528 7.14176C18.2203 7.41049 16.9269 7.42546 16.128 8.2344C16.109 9.31995 16.3563 10.6983 16.8782 11.6882C16.9473 11.8192 17.4496 12.0001 17.6419 12.1291C17.6372 12.3992 17.4192 12.533 17.2299 12.6993Z" fill="white"/>
<path id="Vector_2" d="M16.128 8.2344C16.9269 7.42546 18.2203 7.41049 19.2528 7.14176C19.546 7.06546 20.3412 7.12096 20.6716 7.12068C21.8566 7.12398 22.8092 7.08021 23.8321 7.79705C26.1749 9.43883 26.3432 12.0719 26.6828 14.8225C26.7556 15.4123 27.0996 16.496 27.237 17.1616C27.5879 18.8619 27.9569 20.5759 28.3186 22.2803C29.2842 21.8291 29.7152 21.183 30.6531 21.217C32.1787 19.1585 33.4373 18.6545 35.6086 17.9652C35.9416 17.2268 36.5274 16.9104 37.2875 16.8783C38.7482 16.8167 40.7302 16.4654 42.1452 16.8027C43.003 17.0071 44.0452 18.123 44.8672 18.512C45.458 18.7917 46.0008 19.0803 46.5895 19.357C48.177 20.2086 49.8938 20.5778 51.2716 21.8834C52.1052 22.5679 52.5474 23.5336 53.4368 24.1584C55.4555 25.5765 56.1985 28.3692 57.1669 30.6321C57.2213 30.7592 57.7666 31.3094 57.8905 31.4378C59.1342 32.7271 59.1242 34.4905 59.1334 36.2367C58.0778 36.544 57.992 36.2495 56.812 36.9514C56.8757 37.1992 57.0128 37.6666 57.127 37.8678C57.3055 38.1821 58.0701 39.002 58.0891 39.3174C58.1342 40.0625 58.3218 43.8517 58.1173 44.2355C57.8173 44.5035 57.4043 44.5565 57.0208 44.6479C56.6383 44.5597 56.3751 44.4377 55.9911 44.403C55.6123 44.3687 54.844 44.7229 54.5008 44.6227C54.072 44.4975 52.9366 44.1684 52.5373 44.0099C52.4827 44.3545 52.4272 44.644 52.4275 44.9959C52.4233 46.069 52.4042 46.6631 52.1424 47.6902C51.4783 48.3563 50.6111 48.3806 50.3907 48.6016C49.2955 49.6997 48.6245 49.4996 47.2368 49.3924C46.8504 49.3626 46.3209 49.5174 45.8538 49.3305C45.5384 48.9979 45.6668 48.6443 45.5414 48.4652C44.8786 47.5182 44.8309 47.2053 45.5107 46.2039C45.0203 45.1473 43.7054 44.7825 42.8286 43.6381C41.9758 43.7101 40.0282 43.4628 39.3972 42.9835C39.1677 42.6897 39.267 41.8159 39.2841 41.3939C37.6792 39.8089 35.3877 40.7748 33.3746 40.3204C31.5306 39.904 29.717 39.2854 27.8469 39.0518C27.2544 38.9778 25.7563 40.0325 25.1904 40.3736C23.8412 41.5407 23.4291 43.6445 21.8599 44.7108C21.2243 45.1426 21.3615 47.2415 21.3569 48.1324C20.9421 48.6136 20.5122 48.8249 19.9679 49.0519C18.4502 49.6846 17.6233 49.3447 16.252 48.6027C16.1267 48.5349 15.5255 48.3566 15.2016 48.1948C14.956 47.3579 14.5304 46.2652 14.9109 45.4127C15.2228 44.7141 15.8023 44.0788 16.129 43.3948C17.1602 41.236 18.0426 38.9479 19.4271 37.0248C20.4758 35.5942 21.333 35.5959 22.8085 35.2636C23.6186 35.0812 23.7585 34.8583 24.7519 34.7751L24.7268 34.7367C23.6579 33.0795 23.9982 32.419 25.3525 31.376C25.1998 29.8558 25.5035 29.6008 26.2663 28.4089C26.2284 27.1781 25.8695 26.1115 25.4424 24.9847C24.4779 22.4401 23.5556 19.9368 23.0925 17.2109C22.9329 16.3672 22.6331 15.7163 22.1427 15.0651C20.7521 13.2189 18.4597 14.8696 17.2299 12.6993C17.4192 12.533 17.6372 12.3992 17.6419 12.1291C17.4496 12.0001 16.9473 11.8192 16.8782 11.6882C16.3563 10.6983 16.109 9.31995 16.128 8.2344ZM42.2686 22.264C42.7999 22.4792 43.0933 22.7021 43.5558 23.0613L43.6208 22.8896C43.3051 22.6641 42.9467 22.3894 42.6025 22.237L42.2686 22.264ZM51.733 26.6372C51.6468 26.3578 51.5378 25.9057 51.3662 25.703L51.318 25.7501C51.3294 26.08 51.4562 26.4163 51.5823 26.7167L51.733 26.6372ZM50.2607 37.8575C50.2273 37.8976 50.1801 37.9644 50.14 37.985C50.3468 38.0277 50.7241 38.1519 50.8667 37.9737C50.6662 37.8379 50.4948 37.8591 50.2607 37.8575ZM54.6906 39.9842L54.7217 39.7735C54.5216 39.6252 54.2834 39.5529 54.0429 39.5675C54.1779 39.831 54.4242 39.9306 54.6906 39.9842ZM49.6291 22.9766C49.7659 23.1142 49.9857 23.3281 50.1603 23.3336C50.0951 23.1399 49.8938 23.0049 49.739 22.8761L49.6291 22.9766Z" fill="#040605"/>
<path id="Vector_3" d="M40.8186 17.2031C41.3882 17.3836 42.6379 17.8126 43.1305 18.195C43.2235 18.2673 43.4794 18.8124 43.5738 18.9346C43.7362 19.1451 43.8764 18.9537 44.0303 19.1741L43.9112 19.4947L43.9606 19.5905C44.2798 19.5716 44.2008 19.2826 44.5211 19.3243C44.8278 19.9106 43.671 20.3749 43.3417 20.6326C42.7484 21.097 42.1651 20.549 41.68 20.6393C41.8307 21.0057 42.8913 21.2112 43.2207 21.2708C43.6321 20.8149 44.3338 19.9764 44.9232 19.929C45.1189 20.0211 45.0684 19.9613 45.1414 20.1387C44.9355 20.4582 44.7305 20.3094 44.6295 20.6146L44.7048 20.6997C45.0195 20.6373 45.2726 20.5451 45.5385 20.7968C45.4646 20.9697 45.2666 21.3767 45.2687 21.5405C45.4836 21.5341 46.0145 21.041 46.2478 20.8736C45.77 21.4938 45.604 21.7343 44.9943 22.1964C44.9808 23.2974 45.4526 24.8146 45.8747 25.8161C45.8291 25.2732 45.781 24.7348 45.6968 24.1967C45.6275 23.7532 45.4502 23.3059 45.4543 22.8633L45.5155 22.837C46.078 23.7928 46.3654 27.74 46.5623 28.0539L46.6503 28.0296C46.9229 27.4364 45.8639 23.123 46.1687 22.3034L46.251 22.3055C46.6741 22.8854 46.7676 27.8037 47.8505 29.4224C48.1946 29.5946 50.0317 30.2229 50.3264 30.0315C49.9875 29.217 47.9202 30.0961 47.7359 28.2839C47.6451 27.3913 46.4221 22.8321 46.9956 22.3227C47.156 22.126 47.1033 22.1252 47.2858 22.1137C47.967 22.6121 48.9352 23.1405 49.4649 23.5561L48.6552 23.4688L48.1571 24.0072C48.1345 24.3056 48.138 24.6589 47.9939 24.902L47.7899 25.051C48.0723 25.959 48.3422 27.2643 48.5498 28.2228C49.1191 28.3489 51.5226 28.8953 51.7677 28.0142C51.8219 27.8191 51.6378 26.9863 51.5823 26.7167L51.7329 26.6372C52.6278 29.5897 50.6652 28.5191 49.1218 28.984C49.9331 29.1922 50.9349 29.4496 51.7602 29.3409L51.7913 29.3057C51.9019 29.1816 51.9292 29.1491 52.0835 29.0876C52.2589 29.1469 52.2036 29.0977 52.2922 29.269C52.1299 29.6948 51.2432 29.8066 50.7997 30.0198C51.513 30.0208 52.1415 30.0808 52.684 29.4691C52.6952 28.8379 52.5449 27.0505 52.575 26.7745L52.6815 26.7793C52.8569 28.5507 53.5914 28.5633 53.7352 30.3519C53.5639 30.1143 53.3297 29.8063 53.1776 29.5646C51.685 30.5385 49.0694 30.8574 47.6027 29.7805C47.388 29.2848 47.2909 28.8022 47.0876 28.3529C47.1603 29.4252 47.4126 30.0299 47.1095 30.9611C48.432 31.8244 50.4796 32.4864 52.0159 32.0822C52.5314 31.9466 52.9534 31.6976 53.4191 31.4308L53.4886 31.5135C53.3494 31.9097 53.1353 32.0559 52.786 32.2274C52.6516 32.2924 52.516 32.354 52.3792 32.4122C52.5554 32.5286 52.7481 32.5243 52.9533 32.5408C53.235 32.5507 53.4134 32.5632 53.6954 32.6046C53.8093 32.8255 53.7906 32.7268 53.7687 32.9765C53.3049 33.7496 50.3414 33.7925 49.5088 33.7794C49.6086 33.8479 49.9931 34.1078 50.0349 34.1784C50.498 34.9601 50.0901 34.9951 50.9288 35.2728C50.8307 34.9386 50.712 34.4935 50.5981 34.1752C52.5122 34.0253 54.0324 32.9642 55.131 35.4667C55.1899 35.6009 55.0397 35.7528 55.1946 35.9538C55.528 35.5635 55.2174 34.8218 55.0546 34.3951C55.3932 34.8587 55.6988 35.3337 56.0139 35.8163C55.9046 36.2492 55.4366 35.9649 56.1181 36.9574C55.1486 37.4762 53.2643 38.328 52.1888 38.0318L52.1391 37.9795L52.2236 37.6683L52.1535 37.559L52.0431 37.5672C52.0118 37.7368 51.9942 37.8653 51.9752 38.0368L51.8991 38.0841C51.5108 37.9234 51.1895 37.1167 51.226 36.6448L51.1276 36.5947C50.7674 36.8437 51.0516 37.3559 50.7854 37.5928C50.5124 37.6051 50.459 37.5536 50.2837 37.716L50.2607 37.8575C50.2273 37.8976 50.1801 37.9644 50.14 37.985C48.6733 37.7323 47.3283 37.3664 46.1542 36.2759C46.1597 35.7605 46.0253 34.5301 45.9876 33.9278L45.9361 33.8966C45.8143 34.1864 45.4705 36.5794 44.8351 35.98L44.9913 35.7899C44.7826 35.634 44.163 35.696 43.9768 35.6044C43.1548 35.2 42.222 34.3219 41.5832 33.6365C41.5921 33.0384 41.6965 32.8477 41.2622 32.4603L41.3249 32.3901C41.5023 32.5124 41.5613 32.5569 41.758 32.6333C42.0906 32.4096 41.8718 31.8401 42.4631 31.5105C43.1467 31.4266 45.0617 32.3855 45.7271 32.7544C45.8073 33.2176 45.8659 33.7482 45.9274 34.2199C46.0142 33.7761 46.0302 33.3657 46.0811 32.9158C46.4957 32.8808 48.3396 33.4937 48.8634 33.6582C48.4429 33.2035 48.0325 32.8933 47.4796 32.6465C47.2152 32.5286 46.8614 32.6548 46.693 32.4868L46.687 31.789C47.1109 31.9988 47.4044 32.1243 47.8448 32.2874C47.3025 31.6559 47.1582 31.7427 46.8781 30.7635C46.7417 30.287 46.7839 28.9374 46.6563 28.6972L46.5628 28.6847C46.4489 28.9262 46.5262 30.7258 46.5341 31.0995C46.2082 31.0484 45.9396 31.0686 45.7694 30.7397L45.5819 30.5656C45.5915 31.0527 45.5777 31.1813 45.2583 31.5509C44.7943 32.0768 44.0821 31.5764 43.5766 31.3766C42.4278 30.9223 41.3858 30.0271 40.6035 29.0068C39.986 28.2016 39.4608 27.3051 38.8052 26.5437C38.1508 25.7838 35.4788 23.9932 36.7081 22.6597L36.5306 22.6502C36.3765 22.7293 36.0598 22.8641 36.0139 23.0482C35.7772 23.9725 36.6461 24.9485 37.1164 25.6166C37.5266 26.1994 38.1339 26.7832 38.6723 27.2186C39.5787 27.9518 40.0171 29.0146 40.7177 29.9517C41.0462 30.3911 41.9315 30.6433 41.6575 31.3545C41.4747 31.893 40.8101 32.8943 40.2116 32.585C39.3595 32.1446 38.6537 31.2505 37.9708 30.5464C37.4811 30.0334 37.1054 29.2671 36.8398 28.5908C37.3335 27.9422 37.1792 28.2358 37.7183 27.8718C37.0102 27.5083 36.778 27.4778 35.9912 27.301C35.1118 26.2138 34.3306 25.0657 33.3499 24.0748C33.2314 23.955 33.4509 23.7099 33.3426 23.4254C33.1078 23.3006 32.9024 23.415 32.8708 23.3955C31.3662 22.4708 30.6702 22.4924 29.0799 23.0879C30.4083 21.9512 31.052 22.5221 31.573 22.1757C31.4067 21.9991 31.0909 21.9789 30.85 21.939C32.3008 21.0242 31.6704 21.0328 32.5635 19.9747C33.2799 19.9637 34.8961 20.096 35.3856 20.6636L35.3733 20.771C35.162 20.8089 34.8502 20.7993 34.7275 20.8978C34.8578 21.3037 35.7117 21.5841 36.082 21.4875C36.5661 21.3614 37.9973 19.8263 38.3707 19.8731C38.4237 20.1839 38.1456 20.4966 37.9769 20.737L38.7487 20.2496L38.8458 20.2948C38.8782 20.5799 38.7638 20.7673 38.6259 21.0062L38.7636 20.9647L38.6377 20.9752L38.744 20.815L38.88 20.9139L38.9085 20.8985C39.2484 20.7188 39.5718 20.6624 39.9367 20.8166L39.9512 20.9089C39.0277 21.8186 37.913 22.3858 37.1881 23.7567C37.7015 25.138 38.4005 25.3169 39.3932 26.222L38.8972 25.1293C39.7303 25.6974 40.3315 26.816 40.9601 27.6359C41.738 28.6506 43.6033 30.8056 44.908 30.4886C45.0857 30.4455 45.2208 30.3205 45.3112 30.1482C45.734 29.3421 45.1245 24.9601 44.8569 23.9755C44.8251 23.8586 44.7831 23.771 44.7015 23.6862L44.6012 23.7185C44.5489 23.9321 44.728 24.3857 44.7534 24.7793C44.8164 25.7526 44.9242 28.6343 44.573 29.3974L44.4608 29.4626C44.2868 28.8917 44.1537 28.0986 43.9471 27.5981L43.8934 27.5954C43.857 28.083 43.8102 28.4586 43.688 28.9289C42.0219 27.689 40.802 25.6778 39.3145 24.182C38.9924 23.8582 39.0534 23.7323 39.2552 23.4009C39.6816 23.038 40.2577 22.3554 40.6525 21.9146C40.4952 21.8226 40.3851 21.8678 40.2125 21.907L40.2019 21.8498C40.2229 21.5566 40.1033 21.3749 40.1742 21.1576C40.6547 20.9051 42.1881 21.9484 42.6025 22.237L42.2686 22.264C42.7999 22.4792 43.0933 22.7021 43.5558 23.0613L43.6208 22.8896C43.9314 23.0219 44.3227 23.3553 44.6064 23.5775C44.4182 23.1068 44.2741 22.8309 43.9842 22.4361C44.1774 22.2363 44.2432 22.1548 44.4 21.9194L44.365 21.8217C44.0589 21.8925 44.0318 22.224 43.7291 22.2771C43.0377 21.8323 41.748 21.3106 40.9721 20.9143C40.6144 20.7315 40.073 20.5763 39.7086 20.3708C39.0327 19.9896 38.7745 19.1048 38.0301 18.7534C37.5527 18.528 37.1046 18.5087 36.6098 18.3679C36.4343 18.318 36.3887 18.2565 36.3148 18.1089C36.3087 17.8888 36.3521 17.8339 36.451 17.6438C37.2572 17.1696 40.3274 20.1804 40.7096 20.2539L40.7749 20.1035L40.8763 19.886C41.1915 19.9634 41.5146 20.0489 41.8326 20.106C40.8988 19.4125 40.0952 18.9426 39.3867 17.9433L39.3845 17.8611C39.9691 18.0995 40.7804 19.1278 41.7137 19.5713C41.17 18.8976 40.1215 18.0415 39.4232 17.2709C40.2959 17.6654 40.7281 18.143 41.4662 18.7657C41.7626 19.0156 42.5459 19.3076 42.9346 19.2469L43.0633 19.1614L43.0554 19.054C42.7181 18.8146 42.5718 18.818 42.1869 18.7404C41.5988 18.6218 41.1178 17.737 40.8186 17.2031Z" fill="white"/>
<path id="Vector_4" d="M40.2019 21.8498C40.2229 21.5566 40.1033 21.3749 40.1742 21.1576C40.6547 20.9051 42.1881 21.9484 42.6025 22.237L42.2686 22.264C41.9411 22.0401 41.57 21.9062 41.2084 21.7583C41.4192 21.9784 41.5623 22.1373 41.8078 22.3161L41.8302 22.4417L41.7987 22.3089L41.874 22.4236C41.7569 22.4926 40.7809 23.1077 40.8209 23.0963L40.7676 22.9955L40.669 23.182L40.5304 23.0973C40.3205 23.2009 40.1933 23.4877 40.1702 23.7308C40.8778 24.4683 41.9593 25.5601 42.7434 26.1642L42.4556 26.4244C42.7102 26.6325 42.9526 26.8511 43.1991 27.0705C43.2108 26.7059 43.2026 26.4896 43.3105 26.141L43.363 26.1695C43.4741 26.5775 43.6131 27.782 43.4535 28.1568L43.3304 28.1583C43.1328 28.0319 42.4538 27.1233 42.2537 26.8732C41.5169 25.9517 39.859 24.6687 39.4374 23.5901L39.2552 23.4009C39.6816 23.038 40.2577 22.3554 40.6526 21.9146C40.4952 21.8226 40.3851 21.8678 40.2125 21.907L40.2019 21.8498Z" fill="#040605"/>
<path id="Vector_5" d="M40.2019 21.8498C40.2229 21.5566 40.1033 21.3749 40.1742 21.1576C40.6547 20.9051 42.1881 21.9484 42.6025 22.237L42.2686 22.264C41.9411 22.0401 41.57 21.9062 41.2084 21.7583C41.4192 21.9784 41.5623 22.1373 41.8078 22.3161L41.8302 22.4417L41.7988 22.3089L41.874 22.4236C41.7569 22.4926 40.7809 23.1077 40.8209 23.0963L40.7676 22.9955L40.669 23.182L40.5304 23.0973C40.3205 23.2009 40.1933 23.4877 40.1702 23.7308C40.0866 23.5865 40.0709 23.5727 39.9416 23.4775C39.9716 23.4351 40.1096 23.2447 40.1217 23.2158C40.2933 22.806 41.1705 22.3506 41.2787 21.9734L41.258 21.9929C41.051 21.9352 40.9727 22.0456 40.7547 22.1843L40.6526 21.9146C40.4952 21.8226 40.3851 21.8678 40.2125 21.907L40.2019 21.8498Z" fill="white"/>
<path id="Vector_6" d="M39.9416 23.4775C40.0709 23.5727 40.0866 23.5865 40.1702 23.7308C40.8778 24.4683 41.9593 25.5601 42.7434 26.1642L42.4556 26.4244C41.9431 26.0164 39.6308 24.1003 39.9416 23.4775Z" fill="#EDEFEC"/>
<path id="Vector_7" d="M39.2552 23.4009C39.6816 23.038 40.2577 22.3554 40.6526 21.9146L40.7547 22.1843C40.3064 22.6019 39.7953 23.2912 39.4374 23.5901L39.2552 23.4009Z" fill="#CCCDCE"/>
<path id="Vector_8" d="M41.2084 21.7583C41.57 21.9062 41.9411 22.0401 42.2686 22.264C42.7999 22.4792 43.0933 22.7021 43.5558 23.0613C43.7672 23.6477 43.6266 24.2812 43.4879 24.8819C43.4314 24.4431 43.3655 23.9841 43.319 23.5458C43.0942 23.3332 42.8759 23.1292 42.6614 22.9034C42.8279 23.1984 42.9432 23.3664 42.9778 23.7155L42.9825 23.7592C43.017 24.1046 42.9126 24.6862 42.857 25.0469C42.3211 24.7844 40.9164 23.7438 40.8209 23.0963C40.7809 23.1077 41.7569 22.4926 41.874 22.4236L41.7988 22.3089L41.8302 22.4417L41.8078 22.3161C41.5623 22.1373 41.4192 21.9784 41.2084 21.7583Z" fill="#040605"/>
<path id="Vector_9" d="M41.6243 23.3923C42.2729 23.363 42.1767 23.42 42.5 23.9706C42.5716 24.0926 42.5914 24.0925 42.6562 24.2475L42.4673 24.2798C42.08 24.0464 41.8735 23.783 41.6243 23.3923Z" fill="white"/>
<path id="Vector_10" d="M46.9956 22.3227C47.156 22.1259 47.1034 22.1252 47.2858 22.1137C47.967 22.6121 48.9352 23.1405 49.4649 23.5561L48.6552 23.4688L48.1571 24.0072C48.1345 24.3055 48.138 24.6589 47.9939 24.902L47.7899 25.051L47.6367 25.0928C47.5542 24.713 47.4137 23.6917 47.5234 23.3427C47.6816 23.281 47.8006 23.2456 47.9619 23.1997L47.9763 23.0885C47.809 22.8483 47.4689 22.6217 47.2306 22.4591L47.1275 22.5003C47.0751 22.4515 47.0377 22.3851 46.9956 22.3227Z" fill="white"/>
<path id="Vector_11" d="M47.1275 22.5003L47.2306 22.4591C47.4689 22.6217 47.809 22.8483 47.9763 23.0885L47.9619 23.1997C47.8006 23.2456 47.6816 23.281 47.5234 23.3427C47.4137 23.6917 47.5542 24.713 47.6367 25.0928C47.7997 25.7874 48.0568 27.4667 48.1261 28.2065L48.054 28.2168C47.6613 27.6575 47.7907 27.1449 47.6458 26.5093C47.3249 25.1008 47.1688 23.9512 47.1275 22.5003Z" fill="#040605"/>
<path id="Vector_12" d="M40.1702 23.7308C40.1933 23.4877 40.3205 23.2009 40.5304 23.0973L40.669 23.182C40.1388 24.3885 42.916 25.3383 42.9248 26.0578C42.8232 26.1499 42.8591 26.1428 42.7434 26.1642C41.9593 25.5601 40.8778 24.4683 40.1702 23.7308Z" fill="#040605"/>
<path id="Vector_13" d="M52.3792 32.4122C52.5554 32.5286 52.7481 32.5243 52.9534 32.5408C52.199 32.6037 51.607 32.9217 50.9365 32.8636L50.9023 32.806C51.0752 32.6573 52.0826 32.4784 52.3792 32.4122Z" fill="#161517"/>
<path id="Vector_14" d="M36.5306 22.6502C36.8919 22.3215 37.2738 21.9396 37.6978 21.7308L37.7505 21.7526L37.7137 21.808L37.6747 21.7733L37.6763 21.8546L37.608 21.821L37.6108 21.9287C37.3059 22.2455 37.0603 22.4087 36.7081 22.6597L36.5306 22.6502Z" fill="#161517"/>
<path id="Vector_15" d="M45.5819 30.5656C45.6064 30.3018 45.5719 30.2597 45.6935 30.0743C45.8048 30.233 45.7777 30.5327 45.7694 30.7397L45.5819 30.5656Z" fill="#1C221D"/>
<path id="Vector_16" d="M33.0752 21.2066C33.5372 21.5789 35.0342 22.3858 35.089 23.0501C34.9266 23.1282 34.9548 23.0961 34.745 23.0364L34.4837 22.8334C34.0839 22.7881 34.1195 23.1082 33.7867 22.9466C33.7539 22.7264 33.9067 22.7723 34.0004 22.4497C33.7803 21.9952 32.8859 22.0291 33.0752 21.2066Z" fill="#040605"/>
<path id="Vector_17" d="M45.8566 28.1924C45.9532 28.2414 46.055 28.2653 46.0751 28.3908C46.1482 28.8464 46.3135 29.9758 46.1555 30.3751C45.8616 30.1852 45.8675 28.6128 45.8566 28.1924Z" fill="#040605"/>
<path id="Vector_18" d="M50.8555 35.3837L50.9951 35.4856C51.1341 35.7712 51.1711 36.1748 51.2207 36.5023L51.0635 36.4343C50.8487 36.1423 50.8666 35.7543 50.8555 35.3837Z" fill="#040605"/>
<path id="Vector_19" d="M43.8962 23.8432L44.0139 23.9461C44.1495 24.3158 44.1606 24.7459 44.1594 25.1418C44.0945 25.128 44.0764 25.1073 44.0181 25.0698C43.9502 24.7244 43.924 24.2097 43.8962 23.8432Z" fill="#161517"/>
<path id="Vector_20" d="M16.9635 11.5375C16.7354 10.7373 16.0726 8.82914 16.524 8.12354C16.8578 7.87757 17.2137 7.7941 17.6078 7.75848L17.6585 7.83731C17.5579 7.9701 17.4882 8.03509 17.4585 8.2042C17.9064 8.22436 17.7767 7.76494 18.8272 7.94958L18.9121 7.87131L18.8686 7.55747L18.9505 7.45405C19.1585 7.40052 21.2264 7.36883 21.5766 7.37473C22.8351 7.39588 24.0673 8.43506 24.8917 9.43539C24.4065 9.24731 23.7039 8.81445 23.2341 8.54059C24.2174 9.92284 24.7399 9.71249 25.2362 11.7254L25.0136 12.4317C24.4305 10.8538 24.3588 10.5422 23.1792 9.49904L23.1208 9.71874C23.297 9.91441 23.5144 10.1168 23.5946 10.3721L23.572 10.5207L23.4011 10.6291L23.2663 10.7729C23.4391 10.9069 23.5579 10.9694 23.6163 11.1913C23.5778 11.4677 23.624 11.4206 23.4683 11.574C23.1449 11.6169 22.8493 11.3369 22.6025 11.1219C22.4998 11.033 22.3994 10.9412 22.3013 10.8462L22.2117 10.896C22.2589 11.0182 22.2813 11.0649 22.3461 11.1767C22.2636 11.3114 22.2376 11.316 22.1051 11.3981C22.0318 11.6732 22.0281 11.5669 22.1037 11.8291C22.3682 12.1161 22.5242 12.1292 22.8004 12.4199C23.1894 12.3154 23.6371 12.2125 23.996 12.0282C24.6445 12.9653 24.9539 14.1266 25.3063 15.238C24.9957 14.8945 23.8809 13.3673 23.5582 13.304L23.5872 13.4432L23.6393 13.3319L23.6328 13.33C23.5892 13.674 24.4887 15.0486 24.0522 15.6114C23.7498 15.674 23.5926 15.4492 23.3686 15.2404C23.2586 15.6501 23.7453 16.3442 23.8994 16.9579C23.5646 16.5901 23.3393 16.0728 23.1363 15.6009C22.9077 15.187 22.6307 14.8687 22.3345 14.5152C22.3589 14.271 22.5548 14.4547 22.7321 14.1604C22.6756 13.8072 22.2058 13.4999 22.2469 13.1895C22.4012 13.1343 22.4306 13.1137 22.5671 13.0156C22.6496 12.7634 22.5787 12.7145 22.4822 12.417C21.9484 11.9888 21.6586 11.9873 21.017 11.8258C20.7605 11.5613 20.4756 11.1193 20.2556 10.7995C20.3367 11.0883 20.4301 11.3838 20.4659 11.6826C20.1108 11.814 18.5266 11.3385 18.0198 11.2845C17.9307 11.275 17.9056 11.0479 17.8759 10.9225C17.7856 10.8956 17.7918 10.8705 17.6989 11.0459C17.5883 11.2544 17.2354 11.3666 16.9635 11.5375Z" fill="white"/>
<path id="Vector_21" d="M23.2663 10.7729C22.9871 10.5759 22.6314 10.3159 22.3352 10.1586C22.141 10.0555 21.8147 10.1904 21.6638 10.044C22.0474 9.4779 22.9809 10.4178 23.4011 10.6291L23.2663 10.7729Z" fill="#161517"/>
<path id="Vector_22" d="M23.1363 15.6009C23.2959 15.3648 23.1483 15.0421 23.0928 14.7639C23.3255 14.9703 23.2546 14.8919 23.3686 15.2404C23.2586 15.6501 23.7453 16.3442 23.8994 16.9579C23.5646 16.5901 23.3393 16.0728 23.1363 15.6009Z" fill="#EDEFEC"/>
<path id="Vector_23" d="M22.3944 8.65054C22.6403 8.86749 22.9517 9.24077 23.1792 9.49904L23.1208 9.71873C22.8003 9.36232 22.6299 9.07517 22.3944 8.65054Z" fill="#1C221D"/>
<path id="Vector_24" d="M17.5002 8.65011C17.7235 8.53566 17.7962 8.50995 17.9545 8.30676L18.072 8.31941C18.1037 8.61632 18.2153 9.1918 18.091 9.38831L17.864 9.47662C17.8297 9.66639 17.8141 9.76004 17.6589 9.82531C17.5033 9.6385 17.5354 9.72442 17.5078 9.501L17.4027 9.42913C17.3144 9.1039 17.2273 9.06533 17.1408 8.75016L17.3361 8.71651L17.5002 8.65011Z" fill="white"/>
<path id="Vector_25" d="M17.5002 8.65011C17.7235 8.53566 17.7962 8.50995 17.9545 8.30676L18.072 8.31941C18.1037 8.61632 18.2153 9.1918 18.091 9.38831L17.864 9.47662C17.7135 9.14599 17.9659 9.077 17.5002 8.65011Z" fill="#040605"/>
<path id="Vector_26" d="M17.4027 9.42913C17.3144 9.10391 17.2273 9.06534 17.1408 8.75016L17.3361 8.71651C17.5343 8.93754 17.5885 9.15808 17.4027 9.42913Z" fill="#1C221D"/>
<path id="Vector_27" d="M20.5081 8.50581C20.5929 8.49738 20.6941 8.51389 20.7808 8.524C21.0007 8.69108 21.4084 9.08065 21.4732 9.37426C21.2376 9.30288 20.5834 8.75824 20.5081 8.50581Z" fill="#161517"/>
<path id="Vector_28" d="M19.7745 9.70771C20.1732 9.75246 20.5316 10.0265 20.5757 10.4933C20.2063 9.99436 19.8566 9.9997 19.7745 9.70771Z" fill="#161517"/>
<path id="Vector_29" d="M45.8216 41.113C45.0279 41.0438 45.0096 41.0549 45.1966 40.4563C45.2978 40.132 44.5054 39.5425 44.3393 39.3071C44.1573 39.0492 43.8676 39.1628 43.6732 38.9565L43.6837 38.8227C43.7887 38.7268 43.8173 38.7138 43.9439 38.6539L43.9783 38.638C44.0377 38.4184 44.0409 38.5074 43.9747 38.3008C43.8339 38.2408 43.7781 38.2303 43.6723 38.1084C43.6553 37.8289 43.7111 37.711 43.9301 37.5755C44.1584 37.6265 44.1214 37.6498 44.3203 37.849C44.542 37.8736 44.6211 37.7314 44.8486 37.5555L44.9765 37.5987C45.084 37.8704 44.9169 37.9921 44.9472 38.0443C45.0889 38.2878 45.254 38.5905 45.3756 38.8528C45.5571 38.6824 45.7302 38.4778 45.9613 38.4495C46.0853 38.714 45.7731 38.8662 45.6417 39.0517L45.6916 39.0721C46.2754 39.3046 47.1597 39.0032 47.5133 39.4793C47.5765 39.6951 47.634 39.913 47.6857 40.1325C47.2037 40.0721 46.9591 40.0233 46.5144 39.7878L46.4563 39.8419C46.6319 40.2641 47.2222 40.2772 47.5452 40.5733C47.5471 40.5749 47.9635 40.3017 48.1747 40.3058C48.3399 40.3756 48.4202 40.3905 48.508 40.5651C48.5732 40.9173 48.3988 41.2041 48.2424 41.5081C48.5905 41.46 48.6295 40.7559 49.1859 41.0177C49.3591 41.192 49.4333 41.6529 49.4843 41.6826C49.9347 41.9449 50.7498 42.1867 49.9651 43.0482C49.9022 43.1165 49.8371 43.1823 49.7701 43.2457C49.9592 43.5651 49.674 43.9199 49.5101 44.2387C50.1897 44.3755 50.4636 44.4035 51.153 44.4606C50.8617 44.5681 50.1358 44.7831 50.0087 45.0738C50.2706 45.2616 50.8971 45.0892 51.1595 45.2159C51.194 45.2326 51.3897 45.567 51.5804 45.741L51.6006 45.8477C51.4149 45.9694 50.9712 45.8564 50.7547 45.8099C50.313 46.1909 50.0903 46.4975 50.2245 47.1674C50.1547 47.0712 49.9347 46.7635 49.8726 46.6909C49.8052 46.6122 49.6531 46.766 49.608 46.5144L49.6753 46.3004C49.2922 46.0632 48.7919 46.7028 48.4285 46.6376L48.3307 46.4301C48.0837 46.4337 48.1565 46.6066 47.7407 46.6259L47.7464 46.5464C48.0329 46.329 48.4666 46.1608 48.6186 46.0185L48.51 45.8762C48.1253 46.0787 47.1395 46.3217 47.2334 45.5397C47.5437 45.216 48.9117 45.4934 49.0508 44.5031L48.9413 44.3492C48.7037 44.2111 48.6531 44.1969 48.3873 44.2375L48.3641 44.2413L48.3031 44.1861L48.3125 43.7537L48.241 43.7642C48.1162 43.9561 47.9931 44.1493 47.8716 44.3436C47.6963 44.3491 47.5093 44.3389 47.3328 44.3329C46.8957 44.0057 47.3354 43.8081 46.4514 43.4436C46.6289 43.1236 46.8076 42.924 46.6835 42.5504C46.4659 42.3597 45.9695 42.3117 45.657 42.2442L45.8216 41.113Z" fill="white"/>
<path id="Vector_30" d="M45.3756 38.8528C45.5571 38.6824 45.7302 38.4778 45.9613 38.4495C46.0853 38.7141 45.7731 38.8662 45.6417 39.0517C45.6318 39.0037 45.5953 38.9169 45.5766 38.8676L45.3756 38.8528Z" fill="white"/>
<path id="Vector_31" d="M48.51 45.8762C48.7037 45.7116 48.8664 45.5346 49.109 45.5285L49.1686 45.5982C49.0834 45.8074 48.8152 45.9145 48.6186 46.0185L48.51 45.8762Z" fill="#161517"/>
<path id="Vector_32" d="M48.9088 42.1184C49.6207 42.2729 49.1204 42.4794 49.634 43.2121C49.3702 43.2316 49.4105 43.2727 49.2138 43.1479C49.0299 42.8935 48.975 42.4495 48.9088 42.1184Z" fill="#040605"/>
<path id="Vector_33" d="M26.0635 23.0134C26.2982 23.3517 27.0206 25.4548 27.2794 25.9973C27.5212 26.504 27.9371 26.9505 28.0898 27.2807C28.8691 28.9654 29.7161 30.7258 30.6837 32.2844C31.5077 33.6162 32.6801 34.2776 33.8475 35.148C34.1266 35.356 34.7177 35.7717 34.8507 36.1041L34.8025 36.1848C34.2334 36.3123 31.2627 33.7989 30.7706 33.2493C29.2446 31.5448 28.5228 28.9787 27.5931 26.8584C27.7499 28.5624 28.9694 31.1377 29.854 32.5638C30.9787 34.3632 32.5416 35.5685 34.0238 37.1845L32.5955 36.6022C35.1044 38.9838 36.0597 37.8592 38.4573 39.0193C37.8108 38.9602 37.011 38.7511 36.3674 38.7435C34.3566 38.7197 32.9569 37.2814 31.4258 36.1336C28.6393 34.0447 27.945 30.8724 27.2135 27.4729C26.8713 25.9635 26.2754 24.666 26.0635 23.0134Z" fill="white"/>
<path id="Vector_34" d="M30.1043 26.7358C29.832 26.3762 29.0342 25.8935 29.0344 25.4335L29.0852 25.4043L29.3641 25.7124C29.5492 25.6996 29.6609 25.4963 29.8293 25.3132C30.1675 25.2339 30.1315 25.4 30.5275 25.4384C30.5258 25.2894 30.2876 25.028 30.1801 24.8841C31.0046 24.6599 30.7614 24.0122 31.2096 23.917C32.3896 23.6663 33.4734 25.7923 33.7571 26.6496C33.2877 26.1483 32.913 25.6182 32.4125 25.1134C32.7977 25.9994 33.5229 27.1563 33.8096 27.9079L33.773 28.0033C33.5013 27.8757 33.5579 27.8507 33.3081 27.9744C32.9391 27.5942 32.708 26.2294 32.0778 26.1621C31.9372 26.5092 31.9938 26.4917 31.6905 26.5811C31.4556 26.9562 31.8807 27.372 31.9613 27.7951C32.0334 28.1731 31.8191 28.3089 31.8212 28.6912C31.9855 28.9803 32.6148 30.1822 32.944 29.9286C32.8691 29.4509 32.1881 28.7136 32.454 28.3052C32.6983 28.3857 33.1702 29.6353 33.3352 29.9474C33.9822 31.1715 34.8691 31.4826 35.9569 32.0965C36.4745 32.3887 37.1458 33.2022 37.6657 33.5101C38.9839 34.291 39.8738 34.7555 40.9509 35.9387C40.0472 35.5523 38.9561 35.337 38.1229 34.7894C36.6821 33.8425 36.4809 32.432 34.7407 32.0353C35.2216 32.5418 35.4615 32.8646 35.8731 33.4298C33.4221 32.6822 31.9906 31.038 31.4777 28.3046C31.3695 27.7282 30.9283 26.6003 30.3455 26.4929C30.2528 26.5704 30.1661 26.6287 30.1043 26.7358Z" fill="white"/>
<path id="Vector_35" d="M20.0631 41.3869C20.912 40.6618 20.3027 40.8483 20.553 40.3888C20.8014 40.2833 20.6928 40.5434 21.025 40.5665C21.0868 40.4205 21.091 40.3166 21.1115 40.1585C21.2883 40.1284 21.3524 40.1247 21.5162 40.0394C21.5735 39.7516 21.4249 39.9039 21.3375 39.5557C21.5516 39.2795 21.8064 39.4306 21.9991 39.1704C22.0815 38.9453 21.9906 38.6945 21.9319 38.4542C22.0405 38.1145 22.1637 38.3901 22.3121 38.1152C21.8981 37.8528 21.6385 37.7028 21.6954 37.1286C21.9452 37.1418 22.3561 37.8118 22.631 37.7855C22.6985 37.5244 22.476 37.5543 22.4765 37.1947C22.7459 36.9989 23.9355 37.0402 24.2683 37.1225C24.3985 37.3863 24.2997 37.5269 24.3173 37.7987C24.323 37.8874 24.4632 37.9664 24.4505 38.2297L24.3407 38.3297C24.0791 38.2785 24.1079 37.9643 23.7659 37.8812C23.6554 38.0087 23.8095 38.1647 23.8011 38.4929C23.2613 38.6961 22.3488 39.5348 22.8462 40.1556C22.8134 40.3947 22.5401 40.4963 22.3493 40.8218L22.4129 40.9943C22.8029 41.2368 23.173 40.4868 23.4138 40.1888C23.7779 39.7384 24.2612 39.2923 24.5483 38.7867C24.656 38.6649 24.7868 38.4946 24.9189 38.4218L24.9905 38.4875C24.9802 38.8207 24.8545 38.8197 24.7695 39.0688C25.3845 39.1697 26.2132 38.5366 26.8504 38.3915C27.2547 38.2995 27.5314 38.2864 27.9425 38.259C27.4441 38.584 27.031 38.7979 26.5272 39.0382C26.024 39.2781 24.7838 39.6363 24.4554 40.035C22.9721 41.8351 23.1767 43.5979 20.778 44.5253C20.9968 44.025 22.419 41.7395 22.4025 41.4771C22.203 41.3101 21.9683 41.0923 21.7263 41.1153C21.5051 41.513 21.7155 41.6649 21.753 42.0639C21.4605 42.3092 21.1577 42.0063 21.0591 42.4385L21.3058 42.6887C21.2606 42.8369 21.2893 42.7853 21.1362 42.8807C20.9911 42.8269 20.9323 42.7909 20.7792 42.8111C20.5946 42.9884 20.3228 43.1802 20.1749 43.3262L20.1277 43.3617L19.8902 43.1007C19.835 42.7782 20.0474 42.735 20.2425 42.5086C20.4251 42.2967 20.5017 42.1052 20.6048 41.8433L20.0631 41.3869Z" fill="white"/>
<path id="Vector_36" d="M24.5483 38.7867C24.656 38.6649 24.7868 38.4946 24.9189 38.4218L24.9905 38.4875C24.9803 38.8207 24.8545 38.8197 24.7695 39.0688C24.7128 38.8563 24.7466 38.926 24.5483 38.7867Z" fill="#EDEFEC"/>
<path id="Vector_37" d="M25.778 16.7686L25.9247 16.8636C26.659 18.1066 27.5068 21.7435 27.5571 23.3281C27.4303 22.9732 26.9834 21.681 26.6696 21.5139C26.7298 22.1025 27.078 22.7703 27.2815 23.3361C28.4656 26.6266 30.2393 29.4459 31.7614 32.5082C31.5163 32.2588 31.2614 31.9727 31.0212 31.7134C29.1805 29.6379 28.6481 26.9735 27.4256 24.6228C26.0471 21.972 25.2279 21.3878 24.8421 18.1541C25.3146 18.9681 25.869 19.9841 26.4817 20.6602C26.3678 20.2732 25.8032 17.1939 25.778 16.7686Z" fill="white"/>
<path id="Vector_38" d="M56.8723 31.3012C56.8897 31.3045 56.9145 31.3083 56.9322 31.3144C57.9465 31.6633 57.4344 32.2466 57.6103 32.4974C57.75 32.6966 58.2408 32.6598 58.4342 33.1382C58.5293 33.3733 58.6123 33.7196 58.5262 33.9665C58.4551 34.0034 58.3844 34.0397 58.3102 34.0686C58.3792 34.2833 58.4255 34.4506 58.4788 34.6707C58.4335 34.867 58.3793 34.9531 58.2873 35.1263C58.4601 35.3685 58.6303 35.6129 58.7976 35.8596C58.1631 36.0281 57.8365 36.137 57.2333 36.4137L56.7569 35.875C56.0727 35.1334 55.8601 34.7993 55.3694 33.9192C55.7127 33.3564 55.9364 33.4774 56.2007 33.1156C55.984 32.9739 55.6962 33.0985 55.5756 33.0254C55.2393 32.8213 54.9981 32.899 54.7388 32.8386C54.9508 32.3635 55.6559 32.4984 56.0933 32.1417C56.4059 31.887 56.6133 31.6117 56.8723 31.3012Z" fill="white"/>
<path id="Vector_39" d="M20.5062 36.893C20.8088 37.0783 20.9834 37.797 21.0747 38.1582C20.139 39.9237 20.9022 39.3196 21.0239 40.0109L20.9489 40.0875C20.5801 40.0577 20.3389 39.6145 20.034 39.7291C19.6873 40.6292 19.5627 39.4404 18.9474 40.2042C18.914 40.4646 19.0244 40.3162 19.1277 40.6414L19.0373 40.7181L18.7573 40.5039L18.5618 40.5648C18.5607 40.8885 18.5668 40.9988 18.6235 41.3155L18.5652 41.397L18.3398 41.265C18.0989 41.3524 18.2881 41.5614 18.0206 41.7318C17.3925 41.2425 19.3232 37.9605 19.6244 37.3612C19.8854 37.1824 20.222 37.0321 20.5062 36.893Z" fill="white"/>
<path id="Vector_40" d="M53.7909 26.1684C54.05 26.2599 54.5128 26.3105 54.6348 26.5286C55.3027 27.7232 56.3622 29.6589 56.4964 31.0665C56.5207 31.3222 56.1245 31.6986 55.9658 31.8315C55.7132 31.9211 55.3386 32.0798 55.1002 31.9109C54.768 31.3846 54.8964 31.2515 55.2268 30.819C55.3553 30.6507 55.3759 29.5538 55.3502 29.3214C54.7041 28.9925 54.7937 29.0003 54.448 28.2888C54.0973 27.5673 53.9424 26.9673 53.7909 26.1684Z" fill="white"/>
<path id="Vector_41" d="M52.5439 39.4188C52.8463 39.7223 53.3328 40.3808 53.3429 40.8425C53.2587 41.2428 52.9217 41.3986 52.7835 41.7152C52.6689 41.9777 52.6964 42.5919 52.4824 42.8379C52.339 42.7917 52.1644 42.4821 52.0623 42.3305C51.6233 41.6638 51.0478 40.7909 50.5385 40.2101C51.0249 40.068 52.0465 39.6293 52.5439 39.4188Z" fill="white"/>
<path id="Vector_42" d="M30.6159 36.8068C31.1133 36.9111 33.6093 38.3204 34.2287 38.6224C35.2353 39.1133 38.3113 39.3974 38.8051 40.1864C37.2818 39.7142 36.0223 39.7501 34.5257 39.4631C33.7231 39.3091 30.7485 37.6907 30.6159 36.8068Z" fill="white"/>
<path id="Vector_43" d="M55.3669 37.9167C55.4253 37.9185 55.4893 37.9457 55.5476 37.9647C55.5676 38.2222 55.6512 38.9443 55.7273 39.1625C55.9522 39.808 57.1403 41.6125 55.7615 41.6569C55.5774 41.3528 55.8944 41.3695 55.645 40.8973C55.297 40.7394 55.0271 40.7318 54.6741 40.5108C54.5785 40.2219 54.9923 40.2948 55.0516 39.9158C54.9859 39.7984 54.1725 39.1412 53.8959 38.8016C54.3218 38.4409 54.8787 38.1656 55.3669 37.9167Z" fill="white"/>
<path id="Vector_44" d="M26.1703 25.7019C26.5119 26 27.4134 29.4071 27.5754 30.1005C27.872 31.3694 28.0568 32.5095 28.8707 33.582C28.9967 33.748 29.3014 34.2187 29.3915 34.4003L29.4109 34.4401C29.2499 34.4203 29.0726 34.2789 28.9412 34.1702C27.0293 32.5896 27.1131 29.672 26.5333 27.3422C26.3982 26.7997 26.2512 26.2525 26.1703 25.7019Z" fill="white"/>
<path id="Vector_45" d="M26.2662 29.4186C26.5208 29.6007 26.5095 29.9928 26.3657 30.2608C26.157 30.6497 26.704 31.5915 26.87 31.9817C26.7147 32.152 26.6082 32.2721 26.4707 32.4594C26.2285 32.6186 25.8588 32.5427 25.5639 32.5182L25.4372 33.5446C25.5856 33.7789 25.7301 34.0161 25.8706 34.2562C26.003 34.4857 26.0061 34.4118 25.9638 34.6248C25.7828 34.4148 25.4797 34.2251 25.2991 34.0035C24.6936 33.2607 24.3844 32.226 25.5374 31.9376C25.7281 31.8899 25.9188 31.9404 26.0575 31.791C26.0626 30.807 25.0778 30.9384 26.2662 29.4186Z" fill="white"/>
<path id="Vector_46" d="M34.3121 27.2319C34.7624 27.4657 36.2009 29.9579 36.6332 30.5871C37.3281 31.5987 38.5138 32.6336 39.1324 33.5049C38.7683 33.3455 38.5552 33.1911 38.2217 32.9645C37.0852 32.0461 36.6912 30.9089 35.6829 29.9129C35.8501 30.3858 36.0266 30.8547 36.2121 31.3192C35.3679 30.4167 34.6551 28.4846 34.3121 27.2319Z" fill="white"/>
<path id="Vector_47" d="M45.8569 19.647C46.3477 19.6702 47.5115 20.4555 48.0372 20.6717C49.5859 21.3086 50.5721 21.5172 51.5535 23.085C51.5193 23.077 51.4854 23.0676 51.4517 23.057C51.2773 23.0021 50.451 22.554 50.2934 22.4512C49.2133 21.7469 46.436 20.7804 45.8569 19.647Z" fill="white"/>
<path id="Vector_48" d="M25.5335 35.2336C25.6636 35.2239 26.3474 35.2834 26.427 35.3345C26.276 35.5905 25.8578 35.4495 25.69 35.6591C25.9185 35.8076 26.7539 35.633 27.0382 35.8179L27.0113 35.9056C26.5821 36.0358 25.823 36.5487 25.351 36.7936C24.9285 36.9589 24.5037 36.8971 24.1486 36.577C24.0434 36.3489 24.0634 36.4424 24.0911 36.1849C24.2707 35.9509 24.3499 36.0353 24.6624 35.8799L24.6763 35.7511C24.5013 35.6737 24.47 35.7258 24.2479 35.7795C24.0347 35.6767 23.9062 35.6438 23.6794 35.5813L23.6705 35.5091C24.1646 35.2341 24.9759 35.2468 25.5335 35.2336Z" fill="white"/>
<path id="Vector_49" d="M20.2401 12.0299C20.4139 12.0948 21.4916 13.1923 21.5111 13.4543C21.4081 13.6165 21.4664 13.5745 21.2941 13.6137C21.095 13.5018 21.0198 13.2872 20.8751 13.0759C20.6535 13.1616 20.8149 13.4633 20.6649 13.5271C20.4148 13.6333 19.6397 13.5753 19.3393 13.5993C19.1606 13.5789 18.9823 13.5538 18.8046 13.5242C18.4905 13.47 17.917 13.263 17.7234 12.971L17.7708 12.8663C18.5548 12.9089 19.054 12.5335 19.7969 12.499C19.9372 12.4925 19.9755 12.5999 20.0806 12.7345C20.1805 12.6403 20.2022 12.2375 20.2401 12.0299Z" fill="white"/>
<path id="Vector_50" d="M16.6526 43.9472L17.0555 44.0796C17.1882 44.2711 17.1784 44.3866 17.2039 44.6231C17.9238 45.1123 18.9913 44.9135 19.7856 45.1807C20.2287 45.3297 20.3326 45.8673 20.7073 46.0672L20.7653 46.0305L20.6553 45.616L20.7139 45.5673L20.8914 45.6618C20.9074 45.9318 20.9301 46.1543 20.769 46.3696C20.6844 46.3837 20.599 46.3933 20.5133 46.3884C19.908 46.3534 17.013 44.9888 16.6272 44.522C16.5393 44.3345 16.6093 44.14 16.6526 43.9472Z" fill="white"/>
<path id="Vector_51" d="M53.0619 30.2647L53.1359 30.2992C53.3194 30.7012 52.7483 31.2622 52.4467 31.4056C50.8077 32.1853 49.2851 31.6255 47.7021 30.9821C47.4813 30.8888 47.4956 30.9403 47.4026 30.7574L47.4469 30.6745C47.8001 30.5552 48.7079 30.9866 49.1298 31.063C51.0282 31.4071 51.5337 31.577 53.0619 30.2647Z" fill="white"/>
<path id="Vector_52" d="M38.5711 23.4273L38.6763 23.4828L38.6871 23.5471C38.7312 23.8268 38.7086 23.9399 38.9218 24.1618C40.0769 25.3646 41.0771 26.8826 42.1948 28.0898C42.7506 28.6916 43.3363 29.2586 43.9493 29.7882L43.9465 29.9363C42.162 29.1198 39.71 25.4956 38.4516 23.8908C38.379 23.7981 38.5227 23.5411 38.5711 23.4273Z" fill="#EDEFEC"/>
<path id="Vector_53" d="M16.1007 45.083C16.1082 45.0837 16.1158 45.0841 16.1233 45.0851C16.5303 45.1377 16.863 45.5707 17.0987 45.9069C17.6182 45.9259 18.1446 45.8953 18.6656 45.9025C18.9019 46.0821 19.2431 46.3404 19.3771 46.6264C19.4024 46.6804 19.378 46.707 19.3613 46.7616L19.0965 46.8233C19.236 47.1213 19.3089 47.3504 19.3456 47.6861C19.3555 47.8069 19.345 47.9147 19.331 48.0346C19.1692 47.9448 18.9083 47.2989 18.7412 47.0923C18.6664 47.076 18.5917 47.0593 18.5171 47.0421C18.2528 46.9813 17.8838 46.9444 17.7281 46.6642C17.7008 46.6151 17.7586 46.4871 17.7712 46.4267C17.8113 46.2334 17.1304 46.0527 16.9763 45.9922C16.5332 45.8183 16.3357 45.5106 16.1007 45.083Z" fill="white"/>
<path id="Vector_54" d="M28.1788 35.6087C28.2936 36.3503 27.0524 37.7476 26.3878 37.8441C25.9197 37.9119 25.7966 37.9154 25.3487 37.8294L25.2888 37.772C25.0503 36.8296 25.8771 37.285 26.3643 37.0225C27.0006 36.6795 27.6123 36.0912 28.1788 35.6087Z" fill="white"/>
<path id="Vector_55" d="M38.2646 35.6479C39.2773 36.0097 40.2585 36.4535 40.7845 37.5547C40.9704 37.9438 41.2813 39.1652 41.0952 39.5429C40.6383 39.341 40.4092 36.8789 38.2135 35.852L38.2646 35.6479Z" fill="white"/>
<path id="Vector_56" d="M53.6409 41.4876C54.8078 42.0632 55.9055 42.1948 57.1657 41.9653C56.8085 42.3063 56.6919 42.4444 56.2131 42.5177C56.157 42.4785 56.1762 42.497 56.0842 42.5044C56.0723 42.7851 56.0756 42.8517 55.8727 43.032C55.4827 43.0152 55.4192 42.4461 55.2276 42.388C54.6763 42.2207 53.841 42.8596 53.499 42.1605C53.4734 41.8588 53.5261 41.7689 53.6409 41.4876Z" fill="white"/>
<path id="Vector_57" d="M49.0038 47.7345C49.0996 47.7091 49.1531 47.7237 49.2421 47.767C49.5068 47.8955 49.7364 48.0169 49.8484 48.3285C49.8492 48.4194 49.8447 48.4978 49.8073 48.5808C49.6492 48.9322 49.1588 49.0076 48.8508 49.1047C48.6811 49.1732 48.5455 49.216 48.3642 49.2168C48.2892 49.1744 48.2273 49.129 48.1815 49.0497C48.0582 48.836 48.0304 48.5702 48.0855 48.3265C48.2372 47.6571 48.6149 48.0006 49.0038 47.7345Z" fill="white"/>
<path id="Vector_58" d="M48.8055 24.8596C49.1346 25.3582 47.9796 27.3418 49.8919 27.7834C51.5285 27.1997 50.9603 26.9879 50.8555 25.5056C50.9328 25.5339 51.0166 25.7682 51.0677 25.8756C51.2034 26.2759 51.1665 27.0163 51.1914 27.5012C49.0671 28.6626 48.4459 27.7988 48.4675 25.3421C48.4696 25.0977 48.6508 24.9922 48.8055 24.8596Z" fill="white"/>
<path id="Vector_59" d="M17.6445 47.3852C17.7258 47.3932 17.78 47.4073 17.8482 47.4587C17.9865 47.5632 18.1456 47.6233 18.2844 47.7256C18.429 47.8323 18.5531 48.1006 18.5821 48.2863C18.6107 48.4699 18.5851 48.7556 18.4768 48.9036C18.4163 48.9862 18.2955 48.9669 18.203 48.9741C17.9836 48.9376 17.7076 48.9069 17.5084 48.7943C17.3462 48.7026 17.3096 48.5995 17.253 48.4213C17.2663 48.0665 17.4959 47.6961 17.6445 47.3852Z" fill="white"/>
<path id="Vector_60" d="M46.2089 47.41C46.4301 47.595 46.3237 47.891 46.5076 48.1191L46.6011 48.105L46.7491 47.8413C46.8852 47.8836 46.9216 47.9325 46.9954 48.0666C47.0892 48.2371 47.1153 48.502 47.0667 48.6934C47.0082 48.9236 46.9172 48.9556 46.7382 49.0577C46.6744 48.9188 46.6396 48.7514 46.5964 48.6027C46.4196 48.5465 46.4155 48.824 46.2309 48.9041C46.0895 48.8611 45.952 48.8028 45.8701 48.6582C45.7824 48.5034 45.7856 48.336 45.8117 48.1617L45.8178 48.1229C45.8633 47.8218 46.0335 47.6314 46.2089 47.41Z" fill="white"/>
<path id="Vector_61" d="M36.3446 19.1784C36.4263 19.2315 36.4274 19.2564 36.4632 19.3523C36.3653 19.6019 35.8049 20.0541 35.5846 20.2555C35.0851 20.2203 34.8713 20.1613 34.4251 19.942C34.2829 19.8679 34.239 19.8556 34.164 19.7001C34.3168 19.575 35.3496 19.6718 35.6336 19.5612C35.9018 19.4568 36.1004 19.3284 36.3446 19.1784Z" fill="white"/>
<path id="Vector_62" d="M53.6911 39.8316C53.9309 39.9585 54.3291 40.5504 54.5589 40.7687C54.7614 40.9612 55.1411 41.2241 55.2147 41.488C54.0661 41.7176 53.7632 41.0205 53.6911 39.8316Z" fill="white"/>
<path id="Vector_63" d="M15.9823 46.6033C16.1191 46.6551 16.3021 46.8241 16.3918 46.9494C16.529 47.1412 16.5825 47.4684 16.5547 47.7076C16.5322 47.9015 16.4847 48.0144 16.3466 48.1302L16.2212 48.0617C16.0973 47.8859 16.096 47.8545 15.8973 47.8023C15.7242 47.7568 15.6314 47.7709 15.5358 47.6004C15.5924 47.2598 15.8256 46.9045 15.9823 46.6033Z" fill="white"/>
<path id="Vector_64" d="M51.4568 46.6367C51.4694 46.6399 51.4825 46.6414 51.4947 46.6463C51.6497 46.7099 51.7699 46.9447 51.8334 47.1102C51.9082 47.3047 51.8432 47.437 51.7814 47.6174C51.598 47.763 51.4951 47.7392 51.273 47.7509C51.086 47.8305 51.0148 47.9 50.826 47.8092C50.7564 47.6437 50.7201 47.5521 50.7522 47.3644C50.8256 46.9359 51.1627 46.8546 51.4568 46.6367Z" fill="white"/>
<path id="Vector_65" d="M54.3522 43.207C54.8061 43.273 55.0108 43.1728 55.2999 43.6213C55.3191 43.9914 55.0099 44.0417 54.7301 44.0837C54.4669 44.1928 54.5742 44.179 54.2921 44.1301C53.9433 43.8251 54.1508 43.5568 54.3522 43.207Z" fill="white"/>
<path id="Vector_66" d="M39.6296 21.7574C39.6566 21.7692 39.7258 21.8332 39.7533 21.8568C39.6821 22.1217 38.0856 23.693 37.7565 23.8897L37.6433 23.8229L37.6514 23.7294C37.8416 23.4424 39.3425 21.8876 39.6296 21.7574Z" fill="white"/>
<path id="Vector_67" d="M50.0324 25.0792C50.3285 25.1721 50.6233 25.4198 50.5343 25.7942C50.2486 25.8482 49.9188 25.4566 49.512 25.6336C49.393 25.8348 49.4171 25.7423 49.4215 25.9834C49.5927 26.0774 49.6464 26.0934 49.7474 26.2747L49.6862 26.3718C49.3339 26.4014 49.1641 26.1823 49.1539 25.8145C49.3351 25.3551 49.6243 25.2736 50.0324 25.0792Z" fill="white"/>
<path id="Vector_68" d="M52.0435 38.8627C52.2032 38.8274 52.1407 38.8199 52.2847 38.8795L52.2409 38.9935C51.7176 39.3542 50.9691 39.6176 50.3741 39.8165L50.1271 39.7534L50.077 39.66C50.3135 39.3743 51.6532 38.99 52.0435 38.8627Z" fill="white"/>
<path id="Vector_69" d="M44.5452 41.2884C44.8812 41.2765 45.1876 41.2668 45.3472 41.6182C45.3545 41.8485 45.2685 41.9802 45.1691 42.1837C44.4475 42.3537 44.2519 42.0107 44.5452 41.2884Z" fill="white"/>
<path id="Vector_70" d="M53.5667 27.9346C53.5926 27.9498 53.6195 27.9625 53.6353 27.9905C54.356 29.2636 54.1595 30.5193 54.155 31.7872L54.0629 31.7777C53.951 31.5757 54.0582 30.7377 54.0183 30.3637C53.9508 29.7312 53.7266 28.5323 53.5667 27.9346Z" fill="#CCCDCE"/>
<path id="Vector_71" d="M56.4907 43.2192C56.8126 43.3237 57.4332 43.5753 57.4947 43.9661L57.3779 44.0249C57.0129 44.0439 56.6208 44.3067 56.4172 43.9976C56.3994 43.696 56.441 43.5116 56.4907 43.2192Z" fill="white"/>
<path id="Vector_72" d="M45.8107 31.4183C46.225 31.5703 46.5696 32.1758 46.3706 32.6839C46.1395 32.6718 45.952 32.6165 45.7893 32.4355C45.6233 32.0836 45.7276 31.8034 45.8107 31.4183Z" fill="white"/>
<path id="Vector_73" d="M17.5874 11.6903C18.1669 11.6006 19.328 11.5406 19.6476 12.2234C19.5654 12.2466 19.449 12.2636 19.3626 12.2795C18.7024 11.9753 17.9053 12.0351 17.5874 11.6903Z" fill="#EDEFEC"/>
<path id="Vector_74" d="M39.9792 41.6022L40.1755 41.707C40.3093 41.9472 40.6372 42.4947 40.6328 42.75L40.547 42.8152L39.791 42.7562C39.8354 42.2744 39.8521 42.0618 39.9792 41.6022Z" fill="white"/>
<path id="Vector_75" d="M20.1749 43.3262C20.6287 43.344 20.8267 43.5934 20.7283 44.1035C20.5547 44.3304 20.404 44.34 20.1598 44.2654C19.8983 43.9846 19.9219 43.6738 20.1277 43.3617L20.1749 43.3262Z" fill="white"/>
<path id="Vector_76" d="M47.7671 39.1247C48.1008 39.1271 48.2223 39.1186 48.452 39.3611C48.5307 39.5907 48.4892 39.7324 48.451 39.9773C48.1901 40.0267 47.9976 40.087 47.7791 39.9419C47.6759 39.7373 47.7436 39.374 47.7671 39.1247Z" fill="white"/>
<path id="Vector_77" d="M50.8354 23.9848C52.0086 24.7908 52.4556 25.2358 52.6815 26.7793L52.575 26.7745C52.237 25.0532 51.7069 25.3488 50.8354 23.9848Z" fill="#EDEFEC"/>
<path id="Vector_78" d="M46.0012 45.512C46.2214 45.6075 46.5681 45.7035 46.7316 45.8856L46.651 46.1916L46.7412 46.3286C46.8328 46.3447 46.9326 46.3551 47.0131 46.4092C47.0825 46.4559 47.0876 46.5757 47.1067 46.6624C47.0556 46.6674 47.0079 46.6657 46.9573 46.654C46.6642 46.5861 46.1497 46.3501 45.9892 46.061C45.8891 45.8808 45.965 45.7049 46.0012 45.512Z" fill="white"/>
<path id="Vector_79" d="M30.1043 26.7358C30.1661 26.6287 30.2528 26.5704 30.3455 26.493C30.3924 26.8142 30.487 26.7641 30.5933 27.1151C30.8295 27.8949 30.9396 28.506 31.0098 29.3212C30.5942 28.5027 30.5817 27.4604 30.1043 26.7358Z" fill="white"/>
<path id="Vector_80" d="M50.6519 41.6935C50.9743 41.7599 51.0919 41.837 51.1699 42.1857C51.1337 42.462 51.0454 42.5225 50.8546 42.7167C50.7757 42.7438 50.6726 42.757 50.5885 42.7714C50.2684 42.5106 50.4966 42.0059 50.6519 41.6935Z" fill="white"/>
<path id="Vector_81" d="M37.5711 19.1211C37.6209 19.1374 37.6672 19.1828 37.712 19.2184L37.714 19.3539C37.531 19.7413 37.0569 20.0288 36.723 20.2543C36.6466 20.2468 36.614 20.2094 36.5516 20.1596L36.573 19.9991C36.805 19.5984 37.1904 19.3226 37.5711 19.1211Z" fill="white"/>
<path id="Vector_82" d="M52.8825 42.817C53.0948 42.9728 53.0473 43.0024 53.1262 43.113C53.2485 43.2846 53.657 43.1465 53.8838 43.4144C53.9005 43.62 53.9098 43.537 53.805 43.7492C53.405 43.65 52.9912 43.7479 52.7813 43.377C52.7552 43.1098 52.777 43.0636 52.8825 42.817Z" fill="white"/>
<path id="Vector_83" d="M34.9951 35.9728C35.67 36.1915 36.3477 36.3126 37.0245 36.5085L37.094 36.645C36.3891 36.6582 35.4246 36.7426 34.9951 35.9728Z" fill="white"/>
<path id="Vector_84" d="M40.7749 20.1035C40.3501 19.4973 38.9011 18.538 38.8244 18.076C39.2151 18.2219 40.4323 19.4948 40.8763 19.886L40.7749 20.1035Z" fill="#CCCDCE"/>
<path id="Vector_85" d="M50.0305 40.5821C50.4522 40.9108 50.4416 41.2302 50.2295 41.6708C49.8811 41.5715 49.8146 41.5706 49.743 41.1827C49.7959 40.9003 49.8714 40.8158 50.0305 40.5821Z" fill="white"/>
<path id="Vector_86" d="M15.2484 45.5676C15.2561 45.5708 15.264 45.5734 15.2714 45.5772C15.4358 45.6573 15.6477 45.8063 15.7093 46C15.73 46.2409 15.5761 46.4295 15.4571 46.6156L15.3469 46.7548L15.2479 46.7489C15.0894 46.4335 15.1935 45.9107 15.2484 45.5676Z" fill="white"/>
<path id="Vector_87" d="M49.6291 22.9766C49.0502 22.6081 48.4319 22.3255 47.9799 21.7726C48.7593 22.0452 49.1089 22.3095 49.739 22.8761L49.6291 22.9766Z" fill="#CCCDCE"/>
<path id="Vector_88" d="M41.442 42.3412C41.6818 42.484 41.8891 42.8745 42.0396 43.1315L41.9997 43.2242C41.6916 43.2189 41.4855 43.2671 41.2805 43.0418C41.2425 42.801 41.3559 42.5705 41.442 42.3412Z" fill="white"/>
<path id="Vector_89" d="M45.4901 42.6987C45.7839 42.7445 45.9252 42.7383 46.0901 43.0194C46.0536 43.2598 46.09 43.1687 45.9417 43.3621C45.662 43.3596 45.5028 43.3875 45.3084 43.1851C45.3181 42.9183 45.344 42.9568 45.4901 42.6987Z" fill="white"/>
<path id="Vector_90" d="M47.1393 38.002C47.4653 38.1992 47.1798 38.6885 46.9729 38.8723L46.8899 38.8563C46.6878 38.6409 46.669 38.6841 46.5982 38.4227C46.6756 38.2358 46.9622 38.1065 47.1393 38.002Z" fill="white"/>
<path id="Vector_91" d="M42.4841 35.5317C42.9082 35.5935 43.8304 36.2949 44.0789 36.6981C43.6328 36.6781 42.8117 35.8678 42.4841 35.5317Z" fill="#CCCDCE"/>
<path id="Vector_92" d="M18.9537 42.6616C19.2184 42.6906 19.5542 42.8328 19.623 43.138L19.5348 43.2584C19.258 43.3013 19.1471 43.3492 18.9164 43.2107C18.8395 42.9977 18.8925 42.8829 18.9537 42.6616Z" fill="white"/>
<path id="Vector_93" d="M40.2019 21.8498L40.2125 21.907C39.6409 22.6917 39.3513 22.9894 38.612 23.5751C39.1329 22.8786 39.5145 22.3447 40.2019 21.8498Z" fill="#CCCDCE"/>
<path id="Vector_94" d="M50.2964 43.2143C50.5817 43.1838 50.9635 43.1281 51.081 43.4689L50.9509 43.5898C50.7546 43.6416 50.4661 43.7536 50.2946 43.6702C50.2105 43.4671 50.2493 43.4809 50.2964 43.2143Z" fill="white"/>
<path id="Vector_95" d="M51.3998 42.7338C51.7458 42.8911 51.8675 43.2225 52.014 43.579C51.6999 43.5756 51.587 43.6079 51.3685 43.3919C51.3082 43.1343 51.351 42.9969 51.3998 42.7338Z" fill="white"/>
<path id="Vector_96" d="M49.0365 40.0211C49.2822 40.0102 49.4136 40.0419 49.5577 40.2873C49.5312 40.5146 49.5706 40.4307 49.3926 40.5955C49.142 40.5838 49.001 40.5808 48.8215 40.4025C48.8559 40.1543 48.8455 40.2279 49.0365 40.0211Z" fill="white"/>
<path id="Vector_97" d="M22.1605 36.2956C22.4411 36.2925 22.5449 36.2838 22.741 36.4912C22.7141 36.7305 22.7324 36.6523 22.5552 36.85C22.3222 36.8862 22.2344 36.8961 22.0511 36.7416C22.0412 36.466 22.0367 36.5559 22.1605 36.2956Z" fill="white"/>
<path id="Vector_98" d="M43.9455 39.4043L44.0883 39.5115L44.1024 39.6854C43.9834 39.9399 43.9422 39.9681 43.7213 40.125C43.49 40.0219 43.5512 40.091 43.4401 39.8666C43.4819 39.5155 43.6893 39.486 43.9455 39.4043Z" fill="white"/>
<path id="Vector_99" d="M44.4003 43.6617C44.5722 43.7115 44.7117 43.7456 44.8444 43.8842C44.8438 44.1147 44.7453 44.1815 44.6154 44.3559C44.582 44.3699 44.5705 44.3777 44.5304 44.3772C44.3924 44.3756 44.3523 44.3032 44.2811 44.1931C44.2762 43.946 44.296 43.8789 44.4003 43.6617Z" fill="white"/>
<path id="Vector_100" d="M42.9147 42.5269C43.2225 42.507 43.519 42.4462 43.7589 42.6458L43.7252 42.8122C43.5002 42.8862 43.3262 42.9667 43.0969 42.9066C42.9095 42.7269 42.9609 42.8141 42.9147 42.5269Z" fill="white"/>
<path id="Vector_101" d="M51.4046 23.6067C51.8617 23.6643 52.2073 23.7317 52.3276 24.2734C51.9845 24.3339 51.5894 23.8831 51.4046 23.6067Z" fill="#EDEFEC"/>
<path id="Vector_102" d="M22.134 35.7688L22.1828 35.8733C21.9997 36.2002 21.7399 36.2908 21.4154 36.3738C21.3437 36.2543 21.3625 36.3058 21.3652 36.147C21.5496 35.954 21.8842 35.8616 22.134 35.7688Z" fill="white"/>
<path id="Vector_103" d="M49.6342 24.2311C49.9597 24.242 50.471 24.5387 50.5681 24.9144C50.2468 24.8108 49.7039 24.6073 49.6342 24.2311Z" fill="#EDEFEC"/>
<path id="Vector_104" d="M22.8755 36.0333C23.2452 36.0114 23.6274 36.2826 23.8151 36.6242L23.6701 36.6539C23.3262 36.5212 23.0539 36.3913 22.8755 36.0333Z" fill="#EDEFEC"/>
<path id="Vector_105" d="M42.6025 22.237C42.9467 22.3894 43.3051 22.6641 43.6208 22.8896L43.5558 23.0613C43.0933 22.7021 42.7999 22.4792 42.2686 22.264L42.6025 22.237Z" fill="#848286" fill-opacity="0.984314"/>
<path id="Vector_106" d="M45.4966 47.03C45.6003 47.0897 45.6781 47.1487 45.7291 47.2697C45.818 47.4807 45.7383 47.6928 45.6732 47.8964C45.516 47.8328 45.4984 47.8236 45.4028 47.6727C45.3665 47.4358 45.4292 47.2532 45.4966 47.03Z" fill="white"/>
<path id="Vector_107" d="M34.3445 18.9287C34.7355 18.8961 34.9828 18.8345 35.2586 19.1713C34.9884 19.1925 34.5827 19.2589 34.3614 19.1071L34.3445 18.9287Z" fill="white"/>
<path id="Vector_108" d="M53.047 24.5044C53.4196 24.5503 53.6389 24.6735 53.7045 25.0982C53.345 25.0816 53.1268 24.8891 53.047 24.5044Z" fill="white"/>
<path id="Vector_109" d="M38.2135 35.852C37.9587 35.7507 37.7052 35.6451 37.4533 35.5355L37.4789 35.5357L37.3327 35.4121L37.3372 35.4626L37.2801 35.3924C37.5908 35.3811 37.9604 35.5414 38.2646 35.6479L38.2135 35.852Z" fill="#CCCDCE"/>
<path id="Vector_110" d="M35.9258 34.8342C36.2701 34.8497 36.7395 35.1081 36.8967 35.4551C36.601 35.4585 36.1203 35.0675 35.9258 34.8342Z" fill="#CCCDCE"/>
<path id="Vector_111" d="M51.5823 26.7166C51.4562 26.4163 51.3294 26.08 51.318 25.7501L51.3663 25.703C51.5378 25.9057 51.6468 26.3578 51.733 26.6372L51.5823 26.7166Z" fill="#CCCDCE" fill-opacity="0.980392"/>
<path id="Vector_112" d="M17.5033 41.7751C17.7752 42.0195 17.7538 42.4136 17.643 42.7397C17.3532 42.5328 17.445 42.091 17.5033 41.7751Z" fill="white"/>
<path id="Vector_113" d="M54.0429 39.5675C54.2834 39.5529 54.5216 39.6252 54.7217 39.7735L54.6906 39.9842C54.4242 39.9306 54.1779 39.831 54.0429 39.5675Z" fill="#CCCDCE" fill-opacity="0.988235"/>
<path id="Vector_114" d="M44.1395 41.3049C44.2029 41.3292 44.1802 41.3285 44.234 41.4135C44.1961 41.62 44.0501 41.7511 43.9151 41.9066L43.7767 41.7836C43.8141 41.5553 43.955 41.4863 44.1395 41.3049Z" fill="#CCCDCE"/>
<path id="Vector_115" d="M50.2607 37.8575C50.4948 37.8591 50.6662 37.8379 50.8668 37.9737C50.7241 38.1519 50.3468 38.0277 50.14 37.985C50.1801 37.9644 50.2273 37.8976 50.2607 37.8575Z" fill="#CCCDCE" fill-opacity="0.984314"/>
<path id="Vector_116" d="M49.739 22.8761C49.8938 23.0049 50.0951 23.1399 50.1603 23.3336C49.9857 23.3281 49.7659 23.1142 49.6291 22.9766L49.739 22.8761Z" fill="#4D4E52" fill-opacity="0.980392"/>
<path id="Vector_117" d="M52.4275 44.9959C52.4272 44.644 52.4827 44.3545 52.5373 44.0099C52.9366 44.1684 54.072 44.4975 54.5009 44.6227C54.844 44.7229 55.6123 44.3687 55.9911 44.403C56.3751 44.4377 56.6383 44.5597 57.0208 44.6479C56.852 44.6926 56.6657 44.7064 56.5659 44.8303L56.7209 45.0786C57.0077 45.1666 57.2024 44.8755 57.5034 44.8759C57.6629 44.8761 57.7363 44.8596 57.8909 44.8338L58.0514 44.8784C58.1387 45.0715 58.2283 45.2632 58.3202 45.4535C58.9084 45.9658 59.1069 46.0905 59.8141 46.3093C59.826 46.7632 59.8438 47.2322 59.8393 47.6848C58.5659 49.9888 52.9056 50.7986 50.5987 51.1411C47.5469 51.6023 44.4775 51.9077 41.4003 52.0565C35.062 52.4289 28.4139 52.6253 22.1427 51.8038C19.3831 51.4423 11.7362 50.1082 13.8597 45.5308C13.9153 45.4111 13.9452 45.4172 14.0476 45.3882C14.6014 45.8578 14.2862 47.9531 15.28 48.5853C15.7479 48.8829 16.2168 48.9727 16.6237 49.1998C17.3968 49.631 18.1336 49.8313 19.0078 49.6988C19.5939 49.61 21.065 49.146 21.424 48.5943C22.0994 47.5563 21.2653 45.6006 22.3413 44.7865L22.424 44.8337C22.4541 45.3716 22.3865 45.8807 22.9595 45.9941L23.0536 45.9141L23.0794 45.6036C23.6705 45.5262 23.3087 46.4767 24.0857 44.9971C24.1097 45.6656 23.9901 46.116 24.6613 46.266L24.7701 46.2018C24.8104 45.8822 24.6566 45.8049 24.7806 45.6996C25.0308 45.8366 24.9653 45.8534 25.1954 45.8037C25.5117 45.5027 25.5322 45.0368 25.6163 44.5729C25.6929 44.8924 25.7656 45.3248 25.946 45.5725C26.3293 45.7962 26.6527 45.3299 26.9494 45.0439C26.8543 45.3708 26.7026 45.7552 26.8864 46.0707C27.1403 46.0875 27.204 45.8901 27.3275 45.6658C27.475 45.4824 27.4866 45.4373 27.5665 45.206C27.9239 45.4284 28.3744 45.739 28.7621 45.8434L28.8511 45.7924C28.8154 45.5444 28.5071 45.2725 28.3336 45.0972C28.5946 45.2209 28.59 45.2708 28.8365 45.2412C29.1017 45.0109 29.1041 44.7994 29.2767 44.7875C29.4013 45.0316 29.3175 45.2043 29.5675 45.401C29.9656 45.7145 30.5157 45.8142 30.9946 45.9141C30.8268 45.753 30.4462 45.4434 30.4006 45.2467C30.5966 45.2116 30.9175 45.4291 31.1066 45.5391L31.5489 45.1556L31.6025 45.1817C31.6092 45.5478 31.5294 45.6423 31.6462 45.9334C32.1318 46.224 32.242 45.534 32.6666 45.5527L32.6834 45.5893C32.7461 45.7227 32.7576 45.7511 32.856 45.852C32.9711 45.7966 32.9321 45.8323 32.9931 45.6776C33.1631 45.6355 33.2867 45.5907 33.4585 45.6239L33.5542 45.7147C33.851 45.6077 34.2925 44.976 34.496 44.7053C34.4383 44.9855 34.3088 45.4644 34.3616 45.7242C34.5406 45.973 34.6358 45.9308 34.9009 45.8583C35.0712 45.1141 34.9058 44.9484 35.4219 44.516C35.5095 44.8905 35.4287 44.9061 35.3935 45.1268C35.3587 45.3445 35.9944 45.9674 36.1503 46.1304C36.0926 45.6918 35.9361 44.6264 36.466 44.518C36.4444 44.7979 36.4018 45.0665 36.4905 45.3287C36.7035 45.5942 37.0679 46.0471 37.384 46.1322L37.4636 46.06C37.4125 45.6733 37.2392 45.8302 37.2784 45.5571C37.443 45.5446 37.4646 45.5499 37.6221 45.6056L37.9586 45.533C38.4654 45.578 38.6139 45.6181 39.0376 45.9562C39.197 45.4257 39.0108 45.6245 39.0751 45.2512C39.4806 45.3417 39.5732 45.6951 39.8429 45.6827C40.0057 45.4725 40.3178 44.9761 40.4926 44.9212C40.6036 45.1775 40.5127 45.4768 40.4531 45.7606C40.6317 45.8883 40.8034 46.0429 41.0127 46.0374C41.1206 45.9711 41.1816 45.9334 41.2798 45.8508C41.5276 45.9849 41.8848 46.2111 42.1464 46.2311L42.2468 46.1543L42.2424 45.946C42.1414 45.8881 42.0566 45.8371 41.9592 45.7721L42.0125 45.6533C42.2722 45.5951 42.2363 45.8586 42.411 45.5732C42.5705 45.3129 42.7106 44.8043 42.805 44.4981C42.8662 44.8749 42.9705 45.8931 43.1483 46.1118C43.3098 46.2087 43.4472 46.3204 43.625 46.2943C43.7731 45.9651 43.4576 45.6292 43.6617 45.3693C44.3637 45.6184 44.5464 45.5798 45.1562 46.0752L44.6927 46.7805C44.6922 47.8319 44.9369 48.5645 45.5657 49.4388C45.9554 49.9808 47.6173 49.8056 48.3031 49.8723C49.1572 49.9554 51.5134 48.6913 52.2046 48.1062C52.5871 47.7825 52.6689 46.5512 52.7071 45.9755C52.7335 44.8877 52.7361 44.8228 53.7102 44.6682L53.8502 44.5856C53.6872 44.4993 53.1351 44.2698 52.955 44.2716C52.5715 44.2752 52.6256 44.7259 52.4275 44.9959Z" fill="#039045"/>
<path id="Vector_118" d="M52.4275 44.9959C52.4272 44.644 52.4827 44.3545 52.5373 44.0099C52.9366 44.1684 54.072 44.4975 54.5009 44.6227C54.844 44.7229 55.6123 44.3687 55.9911 44.403C56.3751 44.4377 56.6383 44.5597 57.0208 44.6479C56.852 44.6926 56.6657 44.7064 56.5659 44.8303L56.4655 44.8719C56.4128 45.2389 56.767 45.4969 56.7375 45.8668C56.1234 46.093 55.4906 44.8589 54.895 45.0318C54.6307 45.3457 54.6729 45.7846 54.6623 46.2138C54.2702 46.0312 53.852 45.8263 53.4553 45.6654C53.4306 45.447 53.4057 45.4163 53.296 45.2378C53.4953 45.0121 53.5596 44.9347 53.7102 44.6682L53.8502 44.5856C53.6872 44.4993 53.1351 44.2698 52.955 44.2716C52.5715 44.2752 52.6256 44.7259 52.4275 44.9959Z" fill="#EDEFEC"/>
<path id="Vector_119" d="M37.6221 45.6056L37.9586 45.533C38.4654 45.578 38.6139 45.6181 39.0376 45.9562L38.8678 46.2218C38.5504 46.2877 37.839 45.873 37.6221 45.6056Z" fill="#A9F9CC"/>
<path id="Vector_120" d="M37.9586 45.533C38.4654 45.578 38.6139 45.6181 39.0376 45.9562L38.8678 46.2218C38.5395 45.7811 38.2128 45.8763 37.9586 45.533Z" fill="#176046"/>
<path id="Vector_121" d="M53.7102 44.6682C53.5596 44.9347 53.4953 45.0121 53.296 45.2378C53.1635 45.3709 52.9653 45.5315 52.9421 45.7188L52.9632 45.8209L52.7071 45.9755C52.7335 44.8877 52.7361 44.8228 53.7102 44.6682Z" fill="#176046"/>
<path id="Vector_122" d="M27.3276 45.6658C27.475 45.4824 27.4866 45.4373 27.5665 45.206C27.5993 45.674 28.1189 45.7609 27.9263 46.1971C27.6931 46.2584 27.7881 46.2639 27.5655 46.1826C27.4176 45.9432 27.4245 45.8514 27.3276 45.6658Z" fill="#DEFDF1"/>
<path id="Vector_123" d="M52.9632 45.8209L52.9421 45.7188C52.9653 45.5315 53.1635 45.3709 53.296 45.2378C53.4057 45.4163 53.4306 45.447 53.4553 45.6654L53.4297 45.749C53.5986 45.9448 53.8255 46.1926 53.9729 46.4004C53.5881 46.207 53.3298 46.0549 52.9632 45.8209Z" fill="#DEFDF1"/>
<path id="Vector_124" d="M39.8429 45.6827C40.0057 45.4725 40.3178 44.9761 40.4926 44.9212C40.6036 45.1775 40.5127 45.4768 40.4531 45.7606C40.2335 45.5682 40.0986 45.625 39.8429 45.6827Z" fill="#0E793F"/>
<path id="Vector_125" d="M57.8909 44.8338L58.0514 44.8784C58.1387 45.0715 58.2283 45.2632 58.3202 45.4535C58.2238 45.5758 58.2717 45.5363 58.115 45.5906C57.9613 45.431 57.9041 45.0626 57.8909 44.8338Z" fill="#0E793F"/>
<path id="Vector_126" d="M103.022 31.0684C103.558 31.0241 106.001 31.0152 106.432 31.1125L106.483 31.237L106.396 31.36C106.119 31.4864 105.743 31.4753 105.435 31.4898C106.31 32.2256 106.821 32.647 106.271 33.9873C105.704 35.3684 103.039 34.6063 102.668 35.3854C102.856 35.5713 103.083 35.574 103.347 35.5962C104.422 35.6868 106.535 35.7278 106.771 37.2629C106.806 37.4904 106.852 37.653 106.799 37.8854C106.725 38.264 106.691 38.5329 106.439 38.8168C105.821 39.5133 104.663 39.653 103.824 39.6372C102.811 39.618 101.835 39.4585 101.101 38.6325C100.619 36.9906 101.177 36.7708 102.246 36.014C102.352 35.5175 101.557 35.6777 102.312 34.71C102.174 34.374 101.36 34.2343 101.253 33.3204C101.089 31.9284 101.946 31.3443 103.022 31.0684Z" fill="#039045"/>
<path id="Vector_127" d="M103.279 36.2625C104.88 36.0306 106.145 38.0257 104.37 38.919C102.835 39.4492 101.701 37.5765 103.279 36.2625Z" fill="white"/>
<path id="Vector_128" d="M103.747 31.5418C104.204 31.5766 104.35 31.7683 104.673 32.1086C104.943 33.1593 105.018 33.9508 104.001 34.4343C103.031 34.4888 102.697 33.2881 102.984 32.4395C103.176 31.8701 103.293 31.8037 103.747 31.5418Z" fill="white"/>
<path id="Vector_129" d="M106 18.8569C106.063 18.8501 106.126 18.8441 106.191 18.839C106.721 18.7964 109.193 18.6911 109.514 18.9951C109.291 19.2892 108.885 19.2536 108.511 19.2898C109.039 19.6493 109.501 19.9805 109.522 20.737C109.578 22.691 107.933 22.692 106.63 22.7112C106.321 22.7157 105.848 22.7391 105.863 23.1713C106.264 23.7043 110.365 22.8271 109.879 25.8814C109.371 27.358 107.957 27.3393 106.688 27.3738C105.554 27.4047 103.375 26.6619 104.068 24.8863C104.27 24.3686 104.934 24.0146 105.404 23.7892C105.071 23.1363 104.968 23.0907 105.388 22.411C104.639 21.8411 104.512 21.7007 104.261 20.724C104.573 19.596 104.899 19.0758 106 18.8569Z" fill="#039045"/>
<path id="Vector_130" d="M106.573 23.8991C107.572 24.1391 107.896 24.1974 108.283 25.2933C108.197 25.8093 108.174 25.9261 107.988 26.4126C107.778 26.5181 107.529 26.6175 107.312 26.7107C106.788 26.787 106.075 26.7077 105.81 26.1583C105.303 25.1083 105.86 24.4036 106.573 23.8991Z" fill="white"/>
<path id="Vector_131" d="M106.656 19.3102C108.125 19.2423 108.392 21.4886 107.29 22.0624C105.748 22.443 105.639 20.2953 106.656 19.3102Z" fill="white"/>
<path id="Vector_132" d="M90.2021 31.5834C90.9549 31.1013 91.6741 30.8488 92.5501 31.1129C93.1487 31.2914 93.6571 31.7273 93.9637 32.3234C94.6556 33.6667 94.4683 36.1083 93.1169 36.8904C92.2371 37.3997 91.4202 37.2383 90.5068 36.9972L90.4896 39.502L88.9186 39.4818C88.923 38.39 89.1001 32.3899 88.7129 31.8801C88.6304 31.7716 88.4603 31.676 88.346 31.6121C88.1467 31.5168 88.0483 31.4874 87.9538 31.2962C88.1163 31.1482 88.0972 31.1942 88.3486 31.1741C89.0176 31.1167 89.6689 31.0255 90.2021 31.5834Z" fill="#039045"/>
<path id="Vector_133" d="M88.346 31.6121C88.1467 31.5168 88.0483 31.4874 87.9538 31.2962C88.1163 31.1482 88.0972 31.1942 88.3486 31.1741L88.718 31.2403C88.6495 31.3986 88.4927 31.4738 88.346 31.6121Z" fill="#0E793F"/>
<path id="Vector_134" d="M91.3218 31.63C91.7598 31.5991 92.1876 31.7537 92.3628 32.226C92.8161 33.4487 92.9583 35.899 91.7732 36.6383C91.3383 36.6719 90.9289 36.4785 90.5138 36.3221C90.4573 34.9976 90.4852 33.4005 90.4732 32.0528C90.7474 31.8907 91.0356 31.7637 91.3218 31.63Z" fill="white"/>
<path id="Vector_135" d="M75.1442 18.8456C76.0519 18.7155 76.5546 18.8685 77.3341 19.3558C78.2291 18.7067 79.9202 18.4997 80.6495 19.358C81.4887 20.3449 81.1846 23.5667 81.1821 24.9059C80.6622 24.9098 80.1233 24.8881 79.6021 24.8748C79.6136 23.5652 79.7469 21.327 79.4085 20.1025C79.2835 19.6511 78.9896 19.5204 78.6322 19.3501C78.2894 19.4557 78.0057 19.6074 77.682 19.7674C77.8457 20.6986 77.7892 23.4865 77.7886 24.6077L77.7677 24.7922C77.5652 24.9967 76.5464 24.892 76.2284 24.8765C76.2106 23.4217 76.3483 21.3993 76.0322 20.0134C75.9484 19.6452 75.5257 19.4869 75.2134 19.3241L74.4466 19.7915C74.5037 21.4064 74.4656 23.2622 74.4643 24.8952C73.9369 24.8994 73.4094 24.8973 72.8819 24.889C72.8711 23.3789 72.9162 21.8612 72.8654 20.3493C72.8197 18.9891 71.8923 19.6553 71.9024 18.9755C72.0218 18.8426 72.2465 18.8307 72.4071 18.8471C73.0723 18.915 73.6461 18.8056 74.1711 19.3194C74.5653 19.0834 74.7202 18.9986 75.1442 18.8456Z" fill="#039045"/>
<path id="Vector_136" d="M109.598 31.052C111.147 30.5846 112.744 31.6052 113.153 33.3243C113.561 35.0434 112.625 36.8012 111.068 37.2379C109.531 37.669 107.967 36.6485 107.564 34.951C107.161 33.2536 108.068 31.5136 109.598 31.052Z" fill="#039045"/>
<path id="Vector_137" d="M110.291 31.6152C111.827 31.6753 112.244 35.771 110.437 36.6774C108.902 36.547 108.94 33.6147 109.401 32.4682C109.617 31.9306 109.826 31.8082 110.291 31.6152Z" fill="white"/>
<path id="Vector_138" d="M88.864 18.9263C88.9389 18.9158 89.0145 18.9082 89.09 18.9037C90.7455 18.8207 92.4695 18.9497 94.1205 18.9041C95.0409 18.8786 96.1613 18.6081 96.2267 20.02C96.3003 21.6145 96.2603 23.2811 96.2502 24.8846C95.7303 24.9094 95.1806 24.9028 94.6582 24.9058C94.622 23.5225 94.6778 22.1042 94.648 20.7256C94.6213 20.3 94.6093 19.5419 94.1523 19.3941C93.8082 19.2827 93.8647 19.2889 93.5943 19.0715C93.2833 19.285 91.7751 21.7914 91.431 22.307C91.0387 22.9605 90.628 23.6001 90.1996 24.2249C90.595 24.2193 93.0897 24.1677 93.2871 24.3115C93.3226 24.5479 93.315 24.589 93.2782 24.8268C92.8827 24.9798 88.9002 24.8987 88.2039 24.8975C88.4895 23.4948 90.6007 21.11 91.3034 19.5267C90.5982 19.518 89.0233 19.3392 88.7529 20.1338C88.6869 20.3283 88.5397 20.7051 88.3892 20.8072L88.3264 20.7252C88.2527 19.9016 88.0509 19.2488 88.864 18.9263Z" fill="#039045"/>
<path id="Vector_139" d="M68.4023 28.4838L68.4436 28.4836C69.557 28.4832 70.7897 28.7965 71.6009 29.692C71.7145 30.0308 71.9773 31.1836 71.6352 31.3844C71.0227 31.1413 71.2309 30.1267 70.5237 29.6582C69.8414 29.2062 69.2986 29.0586 68.4982 29.1866C66.2492 29.5462 66.1483 32.3225 66.3844 34.2807C66.8269 36.9965 68.5617 36.9637 70.4939 36.6078C70.4939 35.8983 70.4622 34.2139 70.5764 33.5731C71.0912 32.6872 72.348 32.6759 73.1878 32.7013C72.2338 33.3114 71.9919 33.5812 72.0706 34.8823C72.1024 35.4186 72.0979 36.0403 72.0897 36.5819C71.3927 36.9951 70.8944 37.0898 70.1441 37.2362C67.6057 37.7755 64.8603 36.4697 64.5918 33.3458C64.3424 30.4348 65.9122 28.7763 68.4023 28.4838Z" fill="#039045"/>
<path id="Vector_140" d="M67.9256 16.4808C68.05 16.4882 68.2005 16.4928 68.283 16.604C68.7013 17.1828 68.9273 17.9274 69.192 18.6014C69.6344 19.7269 70.0972 20.8367 70.5218 21.9707C70.725 22.5138 70.9636 23.1713 71.2461 23.6638C71.5057 24.1163 72.0897 24.5257 72.4871 24.8368C71.6174 24.9862 70.8145 25.0149 70.0743 24.41C69.5024 23.9425 69.331 23.2337 68.999 22.6159L68.9089 22.6114L65.8392 22.6147C65.6836 23.0085 65.4437 23.4257 65.3117 23.8215C65.1917 24.1818 64.7563 25.3787 64.2783 24.7679C64.4757 24.0908 65.5142 21.7919 65.8119 21.097C66.2156 20.1556 67.3861 17.1757 67.9256 16.4808Z" fill="#039045"/>
<path id="Vector_141" d="M67.4838 18.8669C67.5765 18.9422 68.6137 21.5595 68.7724 21.9338L67.6184 21.9446L66.1737 21.9409C66.5171 20.9443 67.0465 19.8351 67.4838 18.8669Z" fill="white"/>
<path id="Vector_142" d="M74.797 31.0714C79.1127 30.8636 78.3555 33.2721 78.3282 37.1427C77.9752 37.1463 77.5499 37.1124 77.1919 37.0931L76.8949 36.5871C75.9192 37.3498 74.875 37.5124 73.8277 36.796C73.6595 36.6339 73.4779 36.3674 73.3332 36.1702C73.3059 35.9231 73.2913 35.6745 73.2888 35.4255C73.2805 33.5751 75.5396 33.6438 76.7025 33.6471C76.6721 31.9773 75.6279 30.5308 74.5069 32.4972C74.3323 32.8029 74.1374 32.8514 73.8632 32.7525C73.5452 32.432 73.7249 32.0105 73.8943 31.6549C74.0829 31.2591 74.439 31.1804 74.797 31.0714Z" fill="#039045"/>
<path id="Vector_143" d="M76.5699 34.1826L76.613 34.1936L76.681 34.3169C76.7114 34.8673 76.7711 35.3614 76.5743 35.8885C76.3547 36.4782 75.8875 36.768 75.3352 36.5014C74.6535 35.8575 74.8097 34.7993 75.6063 34.3977C75.9776 34.2105 76.1782 34.2015 76.5699 34.1826Z" fill="white"/>
<path id="Vector_144" d="M77.4097 43.298C81.4944 42.9664 80.8076 46.0421 80.7657 49.3704C80.501 49.3758 80.2039 49.3843 79.9398 49.3696C79.5831 49.3496 79.552 49.2229 79.3387 48.955C79.0962 48.931 78.5065 49.4339 77.9314 49.4727C77.1926 49.5227 76.686 49.4119 76.0887 48.8907C75.586 48.0576 75.6806 47.4166 76.0792 46.5816C77.0498 45.9007 78.0374 45.8869 79.154 45.8604C79.1127 44.9656 79.0867 44.7507 78.6183 44.0181C78.5941 44.0134 78.57 44.009 78.5459 44.0049C78.2171 43.9502 77.4643 43.8062 77.324 44.1714C77.1386 44.6544 76.5603 45.4502 76.1141 44.7563C75.958 43.8888 76.78 43.4403 77.4097 43.298Z" fill="#039045"/>
<path id="Vector_145" d="M78.5891 46.4663C78.6811 46.4507 78.7801 46.4283 78.8734 46.4307C78.956 46.4328 79.0144 46.429 79.0709 46.4993C79.3006 46.7866 79.1642 47.7446 79.1559 48.1193C79.0645 48.234 78.9718 48.3466 78.8766 48.457C78.5954 48.7799 78.4266 48.8659 78.0197 48.8746C77.9607 48.8479 77.9029 48.8191 77.847 48.7844C77.588 48.6233 77.4554 48.3804 77.3843 48.0655C77.3126 47.7469 77.3925 47.4311 77.543 47.1556C77.7988 46.6859 78.139 46.5956 78.5891 46.4663Z" fill="white"/>
<path id="Vector_146" d="M96.5631 31.0755C100.914 30.7364 100.177 33.4284 100.113 37.1342C99.8061 37.1437 99.3973 37.1129 99.0825 37.0979L98.6382 36.5712C97.8695 37.4814 96.546 37.3825 95.6338 36.8081C95.2701 36.4038 95.1819 36.1085 95.1419 35.5468C95.0016 33.5677 97.2779 33.6559 98.5175 33.6412C98.4909 32.8508 98.3322 31.667 97.4092 31.5757C96.6297 31.4986 96.3651 32.8567 95.6808 32.8591C95.4497 32.6073 95.5246 32.0857 95.649 31.789C95.8528 31.3036 96.1403 31.2306 96.5631 31.0755Z" fill="#039045"/>
<path id="Vector_147" d="M97.8567 34.2301L98.4947 34.1827C98.5359 35.3507 98.7714 36.3149 97.493 36.6303C97.4168 36.6011 97.3419 36.5682 97.2689 36.5317C96.7256 36.2612 96.5694 35.5959 96.8398 35.0269C97.1007 34.4774 97.3597 34.4022 97.8567 34.2301Z" fill="white"/>
<path id="Vector_148" d="M83.8919 31.069C84.1864 31.0539 84.481 31.0428 84.7749 31.0358C88.0953 30.9834 87.3755 34.5007 87.3507 37.1162C87.2644 37.1198 87.1781 37.1227 87.0918 37.1245C86.881 37.1289 86.2475 37.1477 86.1225 36.9516C86.0355 36.8147 86.0063 36.7357 85.88 36.6014C85.4579 36.8987 85.2357 37.125 84.7146 37.2225C84.0487 37.351 83.3644 37.1781 82.8147 36.7426C81.8879 35.5085 82.2434 34.258 83.6583 33.841C84.3927 33.6244 85.0097 33.6448 85.7594 33.6426C85.6902 32.8575 85.6394 31.8156 84.7926 31.5887C83.7465 31.3086 83.7072 33.0501 82.9696 32.7716C82.7157 32.463 82.8045 31.8754 82.988 31.5491C83.1727 31.2191 83.5758 31.1477 83.8919 31.069Z" fill="#039045"/>
<path id="Vector_149" d="M85.091 34.227C85.2725 34.2098 85.4452 34.168 85.5994 34.2643C85.8813 34.7141 85.7257 35.4497 85.6762 36.0207C85.3208 36.4447 85.1856 36.5208 84.6955 36.667C84.1325 36.391 84.1014 36.0306 83.9757 35.4176C84.1141 35.0025 84.1718 34.8748 84.3819 34.4977C84.6022 34.3972 84.8625 34.3102 85.091 34.227Z" fill="white"/>
<path id="Vector_150" d="M83.7364 18.8456C84.9672 18.7211 86.8226 18.7593 87.0549 20.4038C87.2333 21.6662 87.1343 23.5977 87.1324 24.9227C86.351 24.8883 86.2253 25.074 85.7683 24.402C85.5321 24.3967 85.0288 24.9611 84.4061 25.0071C83.6805 25.0606 83.2032 24.958 82.6192 24.4444C82.3672 24.1269 82.1126 23.665 82.133 23.2241C82.2218 21.277 84.3673 21.4082 85.628 21.3898C85.555 20.3146 85.2141 18.7848 83.9046 19.5315C83.346 19.8496 83.426 20.7346 82.7519 20.499C82.6903 20.4182 82.6008 20.3263 82.6052 20.218C82.6471 19.2226 82.9899 18.9696 83.7364 18.8456Z" fill="#039045"/>
<path id="Vector_151" d="M85.4172 21.9462L85.522 21.9438C85.6553 22.1522 85.6673 22.767 85.6432 23.0316C85.555 24.0059 85.0783 24.3833 84.2836 24.2923C84.2645 24.2744 84.2448 24.2566 84.2258 24.2388L84.1947 24.2076C83.9852 23.9985 83.7973 23.6181 83.8011 23.3148C83.8145 22.1642 84.7063 21.9998 85.4172 21.9462Z" fill="white"/>
<path id="Vector_152" d="M89.752 43.2911C90.6109 43.1569 91.6202 43.3742 92.246 44.0871C92.9202 44.8544 92.9043 45.647 92.8954 46.6362L89.2163 46.6491C89.4163 48.5189 90.1399 49.7982 91.848 48.2653C91.9858 48.0876 92.0188 48.0497 92.1902 47.9134C92.4035 47.8932 92.3241 47.8669 92.4873 48.006C92.5336 48.1992 92.4904 48.363 92.3978 48.5287C91.7573 49.6728 89.8155 49.6909 88.8824 49.0991C87.531 48.242 87.2308 46.0623 87.9658 44.6425C88.3911 43.8206 88.9611 43.5165 89.752 43.2911Z" fill="#039045"/>
<path id="Vector_153" d="M89.9488 43.9266C90.2738 43.9428 90.6001 43.9601 90.8489 44.218C91.2596 44.6425 91.2018 45.487 91.2228 46.0659L90.5265 46.0577C90.1291 46.0576 89.7101 46.0844 89.3204 45.9957C89.2246 45.8343 89.2106 45.7166 89.2322 45.5226C89.2931 44.9725 89.5527 44.2719 89.9488 43.9266Z" fill="white"/>
<path id="Vector_154" d="M100.257 18.8453C101.438 18.7447 102.918 18.8054 103.134 20.3728C103.311 21.6573 103.202 23.5621 103.186 24.9013C102.645 24.9039 102.103 24.8961 101.562 24.8782C101.564 23.454 101.668 21.8019 101.496 20.4141C101.346 19.211 100.207 19.414 99.4932 19.6501C99.398 19.795 99.4881 20.7058 99.4919 20.9766C99.5122 22.2771 99.5198 23.5773 99.5287 24.8779C99.0088 24.9018 98.4528 24.8954 97.9304 24.8997C97.9037 23.311 97.971 21.4851 97.8631 19.9286C97.3654 19.1171 97.1166 19.4441 96.8989 19.0521C97.0633 18.8459 98.1735 18.7936 98.3525 18.8914C99.4246 19.4762 99.2621 19.0041 100.257 18.8453Z" fill="#039045"/>
<path id="Vector_155" d="M65.0083 41.0479C65.6437 40.9712 70.8081 40.9306 71.0347 41.1807C71.0493 41.427 71.0671 41.3282 70.9573 41.5542C70.7262 41.7594 68.9298 41.6725 68.4931 41.6698L68.4963 48.9871C68.4988 49.1371 68.4957 49.1583 68.4538 49.3008C68.177 49.5011 67.2585 49.3759 66.8948 49.3478L66.9018 41.6659C63.7457 41.617 65.49 42.6977 64.4941 43.2305C64.2592 43.0681 64.2986 42.8208 64.2897 42.5399C64.2624 41.7212 64.3037 41.3772 65.0083 41.0479Z" fill="#039045"/>
<path id="Vector_156" d="M115.724 31.0707C116.771 30.9842 118.817 30.8772 118.667 32.5766C118.647 32.8057 118.683 32.8804 118.533 33.0483C118.183 33.0153 117.833 32.2778 117.541 31.927C117.006 31.282 115.419 31.8778 115.626 32.553C115.892 33.4243 117.548 33.6741 118.224 34.2391C119.638 35.4199 118.835 36.8447 117.321 37.1588C116.671 37.2544 115.883 37.2672 115.252 37.1276C114.45 36.9501 113.921 36.3426 114.194 35.4199C114.248 35.2364 114.185 35.3176 114.356 35.2057C114.991 35.3323 114.993 36.6707 115.868 36.6563C116.422 36.6472 117.319 36.5894 117.368 35.7932C117.117 34.6929 114.376 34.4735 114.137 33.0917C113.927 31.8756 114.752 31.2571 115.724 31.0707Z" fill="#039045"/>
<path id="Vector_157" d="M93.016 41.0491C93.5854 41.0263 94.8689 40.9018 95.3069 41.2401C95.4427 41.4886 95.6059 42.0943 95.5944 42.3523C95.5411 43.5551 95.7512 48.488 95.5837 49.3808C95.0466 49.3898 94.5103 49.3767 93.9745 49.3414C93.9929 47.1351 94.0742 44.1577 93.8888 41.9047C93.838 41.2891 93.1563 41.9323 93.016 41.0491Z" fill="#039045"/>
<path id="Vector_158" d="M79.4803 28.7668C79.9037 28.7514 80.6958 28.6691 81.0139 29.0549C81.4899 29.6314 81.3078 35.877 81.3065 37.1189L80.6946 37.1297L79.7158 37.1098C79.5038 34.918 79.903 32.2102 79.6402 29.9807C79.5603 29.3042 79.0493 29.2761 78.6735 29.0007L78.7166 28.9035C78.9591 28.7688 79.2092 28.78 79.4803 28.7668Z" fill="#039045"/>
<path id="Vector_159" d="M81.0704 43.3094C83.5815 42.9721 84.0055 45.169 84.9037 47.2348C85.2547 46.4859 86.33 43.0265 87.0981 43.3664L87.1394 43.4793C87.0207 44.0014 86.7515 44.5763 86.5395 45.0703C86.0914 46.0012 85.0186 48.9526 84.5476 49.4531C84.4226 49.4869 84.3927 49.5051 84.2778 49.4264C83.8011 49.0985 82.4453 45.4097 81.973 44.5687C81.794 44.2486 81.118 43.5459 81.0704 43.3094Z" fill="#039045"/>
<path id="Vector_160" d="M73.5776 43.2915C73.9877 43.2437 74.2416 43.2209 74.6783 43.352C75.2089 43.5117 75.6241 44.1497 74.9766 44.525C74.6656 44.7049 74.3622 44.3102 74.0918 44.1963C73.7445 44.0497 73.2602 44.3075 72.9314 44.4639L72.9606 49.3662L72.2046 49.388C71.9405 49.3878 71.6206 49.3547 71.3534 49.3352C71.3153 47.8093 71.4111 46.2849 71.3197 44.7578C71.2677 43.8815 70.5567 43.9496 70.3631 43.5296C70.7637 43.0799 72.1786 43.4621 72.6534 43.7651C72.9536 43.5925 73.2685 43.4437 73.5776 43.2915Z" fill="#039045"/>
<path id="Vector_161" d="M94.9324 16.5796C94.9724 16.5787 95.0124 16.5782 95.053 16.5782C96.0178 16.578 96.5593 17.4197 95.755 18.2604C94.6213 18.3316 93.9929 17.2604 94.9324 16.5796Z" fill="#039045"/>
<path id="Vector_162" d="M84.9545 28.6691L86.4348 28.702L85.4312 30.0687C85.0713 30.6623 85.0021 30.5698 84.3616 30.5737C84.5908 29.8735 84.6638 29.4134 84.9545 28.6691Z" fill="#039045"/>
<path id="Vector_163" d="M33.2571 44.4465C33.3057 44.7853 33.3677 45.3127 33.4585 45.6239C33.2867 45.5907 33.1631 45.6355 32.9931 45.6776C33.0347 45.2071 33.1318 44.899 33.2571 44.4465Z" fill="#0E793F"/>
</g>
</g>
</g>
</g>
</g>
<defs>
<clipPath id="clip0_0_1">
<rect width="130" height="60" fill="white"/>
</clipPath>
</defs>
</svg>
